<svg width="838" height="447" viewBox="0 0 838 447" fill="none" xmlns="http://www.w3.org/2000/svg">
<rect width="838" height="447" fill="white"/>
<path d="M167.032 207.031C188.594 235.026 190.848 237.385 191.366 240.735C191.895 244.063 191.07 249.224 189.25 251.267C187.822 252.878 185.378 253.089 182.902 253.373C179.643 253.753 175.506 253.237 171.264 252.32C165.857 251.141 158.747 248.602 153.277 246.001C148.252 243.61 143.184 240.84 139.523 237.575C136.37 234.752 133.704 231.624 132.117 228.096C130.551 224.599 129.99 220.734 130.001 216.51C130.022 211.413 131.049 205.083 133.175 199.658C135.471 193.813 139.597 188.02 143.755 182.807C148.03 177.467 152.727 172.169 158.568 168.061C164.905 163.606 173.126 159.983 180.786 157.529C188.298 155.117 195.81 153.759 204.062 153.316C213.32 152.811 226.164 153.822 233.687 155.423C238.554 156.455 242.458 157.318 245.325 159.636C247.906 161.71 249.388 164.607 250.615 168.061C252.234 172.569 252.615 178.783 252.731 184.913C252.869 192.244 252.276 200.09 250.615 209.138C248.414 221.123 243.981 238.902 238.977 250.214C235.073 259.04 231.169 266.497 225.223 272.332C219.456 277.998 211.468 282.158 204.062 284.971C196.984 287.656 189.091 289.721 181.844 289.183C174.639 288.646 167.402 285.339 160.684 281.811C153.605 278.082 147.077 272.627 140.581 267.066C133.651 261.125 126.319 253.868 120.479 247.054C115.178 240.851 110.227 234.057 106.725 228.096C103.91 223.304 101.286 218.501 100.377 214.404C99.6995 211.339 99.2762 208.379 100.377 205.978C101.572 203.397 104.704 201.207 107.783 199.658C111.486 197.794 116.49 197.068 121.537 196.499C127.568 195.814 134.73 195.877 141.639 196.499C149.151 197.173 157.234 198.237 164.916 200.712C173.115 203.355 182.045 207.547 189.25 212.297C196.053 216.774 202.147 222.535 207.236 228.096C211.86 233.12 216.378 239.292 218.874 243.894C220.567 247.012 222.662 250.003 222.049 252.32C221.467 254.532 218.208 256.365 215.7 257.586C212.981 258.913 209.458 259.493 206.178 259.693C202.761 259.893 198.889 259.398 195.598 258.64C192.572 257.934 189.821 257.07 187.134 255.48C184.14 253.7 180.807 250.983 178.67 248.107C176.617 245.337 175.485 242.009 174.438 238.628C173.327 235.016 171.052 228.907 172.322 227.043C173.189 225.779 175.506 225.779 177.612 225.989C180.976 226.316 186.087 228.538 190.308 231.256C195.619 234.657 201.745 240.492 206.178 246.001C210.527 251.393 213.923 257.692 216.758 263.906C219.541 269.994 221.9 276.755 223.107 282.864C224.186 288.299 224.969 294.144 224.165 298.663C223.519 302.317 222.091 305.403 219.933 308.142C217.615 311.08 213.881 313.429 210.41 315.514C206.845 317.663 202.92 319.717 198.772 320.781C194.477 321.876 189.462 322.371 185.018 321.834C180.648 321.297 176.141 319.475 172.322 317.621C168.799 315.904 166.016 314.587 162.8 311.301C157.605 305.972 149.754 294.028 146.929 286.024C144.739 279.799 144.147 271.953 144.813 268.119C145.162 266.16 145.448 265.349 146.929 263.906C150.304 260.609 161.752 255.448 169.148 253.373C175.856 251.488 182.637 251.425 189.25 251.267C195.683 251.109 202.994 250.919 208.294 252.32C212.473 253.426 216.335 255.343 218.874 257.586C220.927 259.377 222.313 261.009 223.107 263.906C224.45 268.73 224.514 279.862 222.049 284.971C220.144 288.931 215.605 292.227 212.526 293.396C210.357 294.218 208.612 294.397 206.178 293.396C201.174 291.332 192.403 280.399 187.134 274.438C182.913 269.646 179.061 265.433 176.554 260.746C174.353 256.628 172.385 252.131 172.322 248.107C172.269 244.442 173.687 240.808 175.496 237.575C177.453 234.099 180.363 230.761 183.96 228.096C188.181 224.957 194.085 222.303 199.83 220.723C206.009 219.017 212.907 218.68 219.933 218.617C227.656 218.543 236.681 218.848 244.267 220.723C251.44 222.482 258.476 225.357 264.369 229.149C270.051 232.793 275.563 238.017 279.181 242.841C282.218 246.875 284.926 251.741 285.53 255.48C285.974 258.187 286.027 260.999 284.472 262.853C282.398 265.328 276.621 266.402 271.775 267.066C265.692 267.887 258.085 267.044 250.615 266.012C242.003 264.812 232.999 262.874 223.107 259.693C210.823 255.733 189.737 248.623 182.902 242.841C179.643 240.071 178.723 237.828 177.612 234.415C176.215 230.108 175.284 223.156 176.554 218.617C177.707 214.52 181.008 211.212 183.96 208.084C186.986 204.872 190.625 202.07 194.54 199.658C198.688 197.11 203.597 194.55 208.294 193.339C212.78 192.17 217.753 191.528 222.049 192.286C226.196 193.013 230.904 194.15 233.687 197.552C237.496 202.197 239.982 220.333 238.977 220.723C238.13 221.05 232.671 210.918 230.513 205.978C228.545 201.438 227.159 196.804 226.281 192.286C225.455 188.031 224.852 183.734 225.223 179.647C225.593 175.666 226.661 171.326 228.397 168.061C229.963 165.123 232.396 162.258 234.745 160.689C236.702 159.383 238.86 158.424 241.093 158.582C243.748 158.772 246.362 160.826 249.557 162.795C254.35 165.744 260.285 169.894 266.485 175.434C275.531 183.502 291.349 200.543 297.168 208.084C299.919 211.634 302.373 214.614 302.458 216.51C302.5 217.427 302.204 217.995 301.4 218.617C299.368 220.186 292.121 221.187 286.588 221.776C279.742 222.493 271.712 222.44 263.311 221.776C253.292 220.976 240.998 218.88 230.513 216.51C220.588 214.256 209.575 211.465 201.946 208.084C196.339 205.588 191.546 202.544 188.192 199.658C185.801 197.594 183.791 195.772 182.902 193.339C182.003 190.864 181.833 187.199 182.902 184.913C183.971 182.649 186.69 180.869 189.25 179.647C192.191 178.246 196.296 177.709 199.83 177.541C203.343 177.361 207.279 177.235 210.41 178.594C213.648 179.984 216.367 182.933 218.874 185.966C221.752 189.432 224.503 194.361 226.281 198.605C227.899 202.439 229.635 207.105 229.455 210.191C229.338 212.308 228.703 214.235 227.339 215.457C225.762 216.879 222.81 217.384 219.933 217.563C216.081 217.806 211.775 217.29 206.178 215.457C196.074 212.139 174.766 200.838 165.974 194.392C160.927 190.685 157.922 187.515 155.393 183.86C153.288 180.806 151.532 177.267 151.161 174.381C150.876 172.106 151.257 169.936 152.219 168.061C153.267 166.039 155.182 164.143 157.51 162.795C160.472 161.078 164.757 159.973 169.148 159.636C174.681 159.204 182.532 159.435 188.192 161.742C193.81 164.028 198.783 168.778 203.004 173.328C207.257 177.899 210.696 183.818 213.584 189.126C216.24 194.003 219.086 199.722 219.933 203.871C220.514 206.684 221.255 209.275 219.933 211.244C218.144 213.919 211.87 215.436 207.236 216.51C202.094 217.7 196.328 217.658 190.308 217.563C183.399 217.448 175.284 217.184 168.09 215.457C160.821 213.698 153.066 210.307 146.929 207.031C141.671 204.219 136.688 200.912 133.175 197.552C130.382 194.877 128.001 191.728 126.827 189.126C125.991 187.262 125.272 185.492 125.769 183.86C126.361 181.933 128.88 180.089 131.059 178.594C133.641 176.824 136.921 175.413 140.581 174.381C145.12 173.096 150.844 172.348 156.451 172.274C162.757 172.18 170.047 172.812 176.554 174.381C183.103 175.961 189.694 178.699 195.598 181.753C201.301 184.703 207.131 188.189 211.468 192.286C215.436 196.014 219.351 200.796 220.991 204.925C222.271 208.126 222.789 211.56 222.049 214.404C221.329 217.163 219.34 219.786 216.758 221.776C213.489 224.294 208.231 225.81 203.004 227.043C196.572 228.549 189.176 229.749 180.786 229.149C169.518 228.338 152.516 223.63 141.639 219.67C133.313 216.626 126.171 212.761 120.479 209.138C116.173 206.389 112.586 204.008 109.899 200.712C107.402 197.626 104.344 191.822 104.609 190.179C104.704 189.59 105.042 189.347 105.667 189.126C107.423 188.494 113.475 188.958 117.305 190.179C121.6 191.538 125.272 193.718 130.001 197.552C138.074 204.082 151.754 219.417 158.568 229.149C163.54 236.248 166.63 242.746 169.148 249.161C171.295 254.606 173.285 260.346 173.38 264.959C173.454 268.508 172.914 271.963 171.264 274.438C169.677 276.829 166.894 278.609 163.858 279.704C160.133 281.052 154.685 280.926 150.103 280.758C145.512 280.579 140.444 279.841 136.349 278.651C132.815 277.608 129.652 276.703 126.827 274.438C123.515 271.773 119.632 266.728 118.363 262.853C117.337 259.703 117.813 256.386 118.363 253.373C118.902 250.424 119.834 247.37 121.537 244.948C123.314 242.42 125.854 240.04 128.943 238.628C132.636 236.932 137.809 236.469 142.697 236.522C148.294 236.585 154.991 237.891 160.684 239.681C166.259 241.43 172.152 243.979 176.554 247.054C180.416 249.74 183.717 253.268 186.076 256.533C188.065 259.261 190.001 261.863 190.308 264.959C190.657 268.456 189.144 273.353 187.134 276.545C185.198 279.62 181.918 282 178.67 283.917C175.263 285.918 171.401 287.625 167.032 288.13C161.752 288.741 154.875 287.425 149.045 286.024C143.237 284.612 137.407 282.506 132.117 279.704C126.816 276.892 120.511 272.9 117.305 269.172C114.998 266.476 113.644 263.801 113.073 260.746C112.48 257.502 113.136 253.321 114.131 250.214C115.03 247.433 116.384 244.895 118.363 242.841C120.511 240.619 123.463 238.797 126.827 237.575C130.953 236.069 136.476 235.384 141.639 235.468C147.353 235.563 154.007 236.532 159.626 238.628C165.297 240.735 170.576 244.432 175.496 248.107C180.458 251.794 185.674 256.007 189.25 260.746C192.615 265.201 194.858 270.783 196.656 275.491C198.201 279.504 200.116 283.454 199.83 287.077C199.576 290.437 197.704 293.923 195.598 296.556C193.482 299.2 190.731 301.559 187.134 302.876C182.447 304.582 175.379 304.203 169.148 303.929C162.366 303.623 154.568 302.465 147.987 300.769C141.946 299.2 135.862 297.167 131.059 294.45C126.901 292.09 123.505 289.226 120.479 286.024C117.527 282.885 114.586 279.862 113.073 275.491C111.147 269.888 110.671 261.673 112.015 254.427C113.581 245.959 119.146 233.846 123.653 228.096C126.573 224.378 129.842 222.493 133.175 220.723C136.222 219.101 139.439 217.606 142.697 217.563C146.125 217.511 150.093 218.448 153.277 220.723C157.372 223.63 162.027 230.487 163.858 235.468C165.402 239.629 165.339 244.116 164.916 248.107C164.535 251.815 163.403 255.88 161.742 258.64C160.387 260.904 158.694 262.684 156.451 263.906C153.902 265.296 150.474 265.875 146.929 266.012C142.549 266.181 138.169 265.654 132.117 263.906C121.463 260.83 99.8053 250.909 89.7964 244.948C83.6811 241.303 79.6183 237.786 76.0422 234.415C73.3654 231.877 70.4559 229.928 69.6941 227.043C68.9006 223.999 70.149 219.607 71.8101 216.51C73.5664 213.245 76.55 210.37 80.2743 208.084C85.1094 205.114 92.2933 203.176 99.3186 201.765C107.561 200.111 117.58 199.5 126.827 199.658C136.275 199.816 145.956 200.922 155.393 202.818C165.011 204.746 175.327 207.653 183.96 211.244C191.736 214.467 199.947 217.585 205.12 222.83C209.881 227.632 214.716 236.079 214.642 240.735C214.6 243.747 212.833 246.254 210.41 248.107C207.056 250.677 200.507 251.288 194.54 252.32C187.123 253.605 178.395 254.69 169.148 254.427C157.954 254.1 142.126 251.878 132.117 249.161C124.912 247.202 118.987 244.8 114.131 241.788C110.206 239.344 106.725 236.753 104.609 233.362C102.556 230.055 101.043 225.789 101.435 221.776C101.911 217.068 105.381 211.212 108.841 207.031C112.385 202.744 117.432 199.111 122.595 196.499C127.97 193.771 134.286 192.454 140.581 191.233C147.289 189.927 154.716 188.779 161.742 189.126C168.82 189.463 175.845 190.927 182.902 193.339C190.657 195.983 199.1 200.143 206.178 204.925C213.193 209.643 220.324 215.72 225.223 221.776C229.508 227.064 232.586 233.552 234.745 238.628C236.385 242.451 238.204 245.896 237.919 249.161C237.665 252.183 235.845 255.648 233.687 257.586C231.581 259.472 228.545 260.03 225.223 260.746C220.821 261.694 214.6 262.305 209.352 261.799C204.02 261.283 198.508 259.387 193.482 257.586C188.658 255.849 183.251 254.553 179.728 251.267C176.162 247.918 172.84 242.051 172.322 237.575C171.877 233.636 173.496 229.423 175.496 225.989C177.612 222.356 181.4 218.806 185.018 216.51C188.488 214.309 192.35 212.919 196.656 212.297C201.703 211.571 208.136 212.129 213.584 213.351C219.065 214.572 224.778 216.458 229.455 219.67C234.353 223.03 238.257 227.843 242.151 233.362C246.88 240.04 251.514 250.151 254.847 257.586C257.556 263.621 260.455 270.362 261.195 274.438C261.597 276.639 262.317 278.851 261.195 279.704C259.037 281.337 249.843 277.019 242.151 274.438C229.772 270.267 201.661 260.146 194.54 255.48C192.107 253.879 191.218 253.1 190.308 251.267C189.239 249.076 188.911 245.822 189.25 242.841C189.663 239.239 191.26 235.079 193.482 231.256C196.169 226.642 200.772 221.734 205.12 217.563C209.575 213.287 214.463 208.779 219.933 205.978C225.402 203.176 231.772 201.586 237.919 200.712C244.119 199.816 250.678 199.859 256.963 200.712C263.375 201.575 270.95 203.44 276.007 205.978C279.964 207.958 283.414 210.275 285.53 213.351C287.561 216.289 288.852 220.165 288.704 223.883C288.545 228.17 286.312 233.32 283.414 237.575C280.028 242.557 273.352 249.097 268.601 251.267C265.343 252.752 262.158 252.931 259.079 252.32C255.799 251.657 252.593 249.55 249.557 247.054C245.822 243.968 242.013 239.365 238.977 234.415C235.507 228.717 233.147 221.734 230.513 214.404C227.434 205.83 223.244 194.129 222.049 185.966C221.181 180.005 224.006 170.884 222.049 170.168C219.467 169.22 210.685 185.83 204.062 191.233C198.201 196.014 191.662 199.479 185.018 201.765C178.596 203.966 171.211 205.051 164.916 204.925C159.308 204.809 153.775 203.65 149.045 201.765C144.686 200.017 140.581 197.552 137.407 194.392C134.233 191.233 131.779 186.809 130.001 182.807C128.34 179.068 126.806 174.644 126.827 171.221C126.848 168.483 127.525 165.776 128.943 163.848C130.361 161.921 132.625 160.331 135.291 159.636C138.878 158.698 144.189 159.288 149.045 160.689C155.288 162.479 162.398 166.892 169.148 171.221C176.839 176.14 184.5 182.449 192.424 189.126C201.375 196.657 213.838 207.8 219.933 214.404C223.392 218.153 227.878 222.324 227.339 223.883C227.021 224.81 224.937 224.852 223.107 224.936C219.848 225.084 214.568 224.336 209.352 222.83C201.84 220.649 192.943 216.142 182.902 211.244C169.01 204.461 147.786 193.381 134.233 184.913C123.843 178.415 115.178 172.611 107.783 165.955C101.445 160.236 95.3087 153.306 91.9125 148.05C89.68 144.585 87.0667 141.341 87.6804 138.571C88.3258 135.685 92.706 132.336 96.1445 131.198C99.964 129.934 105.011 131.261 109.899 132.251C115.802 133.431 122.415 135.738 128.943 138.571C136.455 141.825 143.057 145.754 152.219 151.21C166.228 159.541 203.882 175.318 204.062 184.913C204.2 191.707 186.288 196.425 178.67 202.818C171.592 208.769 162.027 217.922 159.626 221.776C158.79 223.135 158.113 223.535 158.568 224.936C160.684 231.371 215.817 254.848 216.758 266.012C217.309 272.479 203.322 283.823 199.83 282.864C196.857 282.043 196.476 271.573 195.598 266.012C194.762 260.693 194.424 255.712 194.54 250.214C194.678 244.179 195.439 237.522 196.656 231.256C197.894 224.883 199.142 218.396 201.946 212.297C204.972 205.725 209.828 198.742 214.642 193.339C219.086 188.347 224.471 184.323 229.455 180.7C234.004 177.404 239.421 174.033 243.209 172.274C245.653 171.137 248.15 169.515 249.557 170.168C250.869 170.768 251.155 173.149 251.673 175.434C252.541 179.236 253.08 185.987 252.731 191.233C252.382 196.52 251.303 201.965 249.557 207.031C247.79 212.15 245.759 217.511 242.151 221.776C238.215 226.411 231.391 230.908 226.281 233.362C222.292 235.279 219.298 236.753 214.642 236.522C207.374 236.153 193.588 230.402 187.134 225.989C182.648 222.914 179.738 219.217 177.612 215.457C175.739 212.139 174.808 208.548 174.438 204.925C174.067 201.186 174.184 196.73 175.496 193.339C176.744 190.106 179.061 187.146 181.844 184.913C184.912 182.459 188.679 180.679 193.482 179.647C200.391 178.151 211.997 177.972 219.933 179.647C226.979 181.132 233.285 184.882 238.977 188.073C244.087 190.927 249.187 193.592 252.731 197.552C256.17 201.375 258.762 206.62 260.137 211.244C261.386 215.415 261.893 219.596 261.195 223.883C260.412 228.707 257.989 234.426 254.847 238.628C251.673 242.873 247.758 245.601 242.151 249.161C233.465 254.669 217.467 262.305 206.178 266.012C196.889 269.067 184.965 272.858 179.728 271.278C176.977 270.446 175.676 268.35 174.438 266.012C172.893 263.074 172.48 258.766 172.322 254.427C172.131 248.887 172.671 241.451 174.438 235.468C176.205 229.518 179.336 223.925 182.902 218.617C186.658 213.014 191.8 207.621 196.656 202.818C201.343 198.184 206.041 193.676 211.468 190.179C216.959 186.64 222.98 183.512 229.455 181.753C236.321 179.879 246.055 179.226 251.673 179.647C255.196 179.91 257.831 180.311 260.137 181.753C262.391 183.154 264.031 185.682 265.427 188.073C266.887 190.569 267.977 192.686 268.601 196.499C269.807 203.756 270.358 219.512 267.543 229.149C264.993 237.891 258.254 247.939 253.789 252.32C251.282 254.774 249.747 255.564 246.383 256.533C240.585 258.197 227.455 259.219 220.991 257.586C216.494 256.438 213.5 254.079 210.41 251.267C207.078 248.223 204.401 243.831 201.946 239.681C199.439 235.416 197.185 230.813 195.598 225.989C193.969 220.997 192.424 215.457 192.424 210.191C192.424 204.925 193.715 199.416 195.598 194.392C197.545 189.221 200.761 183.955 204.062 179.647C207.162 175.603 210.707 171.937 214.642 169.115C218.483 166.355 223.234 164.417 227.339 162.795C230.968 161.363 234.565 159.909 237.919 159.636C240.871 159.383 243.579 159.509 246.383 160.689C249.927 162.174 253.577 165.597 256.963 169.115C261.047 173.349 265.226 179.415 268.601 184.913C271.913 190.306 274.886 196.351 277.065 201.765C278.97 206.483 280.716 211.55 281.297 215.457C281.721 218.248 282.641 220.976 281.297 222.83C279.499 225.315 273.331 226.274 268.601 227.043C262.962 227.948 256.254 227.759 249.557 227.043C241.908 226.221 233.285 224.452 225.223 221.776C216.695 218.943 207.533 214.467 199.83 210.191C192.858 206.315 186.309 202.924 180.786 197.552C174.924 191.843 168.904 182.691 165.974 176.487C163.974 172.243 162.45 168.398 162.8 164.902C163.106 161.805 164.926 158.856 167.032 156.476C169.359 153.853 172.745 152.052 176.554 150.156C181.484 147.702 188.784 145.448 194.54 143.837C199.671 142.394 203.576 141.172 209.352 140.677C217.287 139.982 230.227 140.161 237.919 141.731C243.452 142.858 247.991 144.606 251.673 146.997C254.784 149.008 257.672 151.399 259.079 154.369C260.507 157.361 260.677 161.552 260.137 164.902C259.608 168.219 257.958 171.611 255.905 174.381C253.778 177.256 250.911 179.868 247.441 181.753C243.389 183.944 238.12 184.934 232.629 185.966C226.027 187.209 217.986 188.041 210.41 188.073C202.486 188.104 195.778 188.02 186.076 185.966C170.682 182.701 142.941 172.411 127.885 165.955C117.844 161.647 108.142 157.076 103.551 153.316C101.276 151.441 100.017 150.02 99.3186 148.05C98.652 146.144 98.7049 143.742 99.3186 141.731C99.9957 139.519 101.837 137.307 103.551 135.411C105.339 133.431 107.233 131.493 109.899 130.145C113.263 128.449 118.098 127.385 122.595 126.985C127.557 126.543 132.72 126.754 138.465 128.039C145.829 129.671 156.399 133.779 162.8 137.518C167.666 140.34 171.126 143.226 174.438 146.997C177.876 150.904 180.765 155.981 182.902 160.689C184.923 165.123 186.298 168.83 187.134 174.381C188.361 182.47 188.255 196.467 187.134 204.925C186.319 211.107 184.679 216.068 182.902 220.723C181.4 224.673 180.162 228.601 177.612 231.256C175.168 233.794 171.549 235.626 168.09 236.522C164.514 237.438 160.366 237.154 156.451 236.522C152.262 235.837 147.628 234.405 143.755 232.309C139.862 230.202 136.349 227.043 133.175 223.883C130.001 220.723 126.457 216.974 124.711 213.351C123.23 210.275 121.791 207.263 122.595 203.871C123.801 198.784 131.948 190.537 136.349 187.02C139.248 184.703 141.258 184.018 144.813 182.807C150.188 180.964 158.8 179.299 165.974 178.594C173.253 177.878 180.701 177.477 188.192 178.594C196.212 179.773 204.708 181.88 212.526 185.966C221.361 190.569 232.629 199.49 237.919 205.978C241.431 210.265 243.294 214.477 244.267 218.617C245.113 222.187 245.611 225.726 244.267 229.149C242.563 233.509 238.342 237.543 232.629 241.788C222.842 249.066 192.879 266.655 187.134 263.906C184.616 262.695 184.626 257.597 185.018 254.427C185.452 250.93 187.853 247.107 190.308 243.894C193.006 240.366 196.688 236.68 200.888 234.415C205.406 231.982 211.722 230.855 216.758 230.202C221.192 229.623 225.603 229.391 229.455 230.202C232.946 230.94 236.797 232.677 238.977 234.415C240.543 235.648 241.315 236.932 242.151 238.628C243.177 240.661 243.886 243.294 244.267 246.001C244.711 249.171 244.881 252.32 244.267 256.533C243.315 263.2 240.648 276.829 236.861 281.811C234.544 284.865 231.719 286.719 228.397 287.077C224.239 287.519 218.261 284.855 213.584 281.811C207.913 278.103 202.126 270.583 197.714 264.959C193.874 260.051 188.922 254.585 188.192 250.214C187.684 247.138 188.784 244.474 190.308 241.788C192.212 238.439 195.916 234.721 199.83 232.309C204.2 229.623 209.458 228.159 215.7 227.043C224.175 225.526 237.443 224.926 246.383 225.989C253.567 226.832 259.259 228.591 265.427 231.256C271.987 234.089 278.525 238.333 284.472 242.841C290.534 247.433 296.988 253.258 301.4 258.64C305.082 263.126 308.404 268.171 309.864 272.332C310.933 275.354 311.768 278.767 310.922 280.758C310.255 282.316 308.594 283.285 306.69 283.917C303.886 284.844 299.178 284.581 295.052 283.917C290.111 283.117 284.683 280.989 279.181 278.651C272.77 275.923 265.438 272.153 259.079 268.119C252.742 264.085 246.425 259.577 241.093 254.427C235.866 249.371 230.343 243.431 227.339 237.575C224.736 232.488 223.043 227.19 223.107 221.776C223.181 215.984 225.762 209.117 228.397 203.871C230.83 199.048 233.898 195.604 237.919 191.233C243.177 185.535 251.959 177.267 258.021 173.328C262.2 170.61 266.147 168.82 269.659 168.061C272.336 167.482 275.108 167.124 277.065 168.061C278.949 168.957 280.261 171.168 281.297 173.328C282.546 175.908 283.054 179.542 283.414 182.807C283.794 186.198 284.609 190.464 283.414 193.339C282.313 195.983 280.06 198.321 277.065 199.658C272.833 201.554 265.237 201.565 259.079 200.712C252.223 199.753 245.716 197.078 237.919 193.339C227.032 188.115 208.971 176.582 200.888 170.168C196.402 166.608 193.493 164.217 191.366 160.689C189.451 157.487 188.086 153.453 188.192 150.156C188.298 147.176 189.409 144.511 191.366 141.731C194.149 137.802 201.195 131.957 205.12 130.145C207.469 129.06 209.776 128.723 211.468 129.092C212.78 129.366 213.648 130.071 214.642 131.198C216.208 132.968 217.764 135.854 218.874 139.624C220.821 146.186 222.884 161.447 222.049 168.061C221.583 171.769 220.398 175.445 218.874 176.487C217.975 177.109 217.139 176.982 215.7 176.487C211.109 174.897 195.418 161.816 190.308 156.476C187.6 153.643 186.044 151.462 185.018 149.103C184.235 147.281 183.664 145.533 183.96 143.837C184.277 142.015 185.568 139.456 187.134 138.571C188.732 137.676 191.006 137.886 193.482 138.571C197.714 139.74 204.824 144.353 209.352 148.05C213.532 151.452 216.843 155.254 219.933 159.636C223.244 164.312 226.281 169.947 228.397 175.434C230.492 180.837 232.237 186.461 232.629 192.286C233.041 198.384 231.899 204.998 230.513 211.244C229.106 217.637 226.757 223.63 224.165 230.202C221.244 237.607 217.806 246.359 213.584 253.373C209.617 259.967 205.279 266.191 199.83 271.278C194.36 276.387 187.134 280.673 180.786 283.917C175.147 286.793 167.254 292.501 163.858 290.237C159.149 287.088 161.784 264.927 162.8 255.48C163.53 248.792 164.926 240.893 167.032 238.628C167.963 237.628 169.031 237.291 170.206 237.575C172.301 238.059 175.327 241.988 177.612 244.948C180.331 248.455 183.24 253.342 185.018 257.586C186.637 261.42 187.494 265.107 188.192 269.172C188.954 273.511 189.282 278.493 189.25 282.864C189.229 286.887 189.504 291.048 188.192 294.45C186.944 297.673 185.007 300.811 181.844 302.876C177.675 305.593 170.121 306.825 163.858 307.088C157.118 307.362 150.706 305.73 142.697 303.929C131.779 301.464 108.238 297.209 104.609 292.343C103.17 290.395 104.207 288.236 104.609 286.024C105.095 283.37 106.079 280.399 107.783 277.598C109.93 274.08 113.485 270.352 117.305 267.066C121.727 263.253 127.208 259.282 133.175 256.533C139.756 253.5 147.755 251.615 155.393 250.214C163.255 248.771 172.015 248.034 179.728 248.107C186.753 248.17 194.075 248.328 199.83 250.214C204.75 251.815 208.919 254.637 212.526 257.586C215.891 260.325 218.726 263.463 220.991 267.066C223.35 270.805 224.873 275.344 226.281 279.704C227.709 284.117 228.756 288.636 229.455 293.396C230.206 298.441 231.444 304.224 230.513 309.195C229.613 314.04 227.571 320.296 224.165 322.887C221.033 325.267 213.669 326.942 211.468 324.993C208.802 322.613 211.289 312.513 212.526 306.035C213.902 298.852 216.43 290.131 219.933 283.917C223.011 278.462 227.032 274.07 231.571 270.225C236.184 266.328 241.886 263.032 247.441 260.746C252.837 258.524 259.217 257.165 264.369 256.533C268.58 256.017 273.426 255.754 276.007 256.533C277.489 256.976 278.6 257.334 279.181 258.64C280.345 261.21 278.853 269.204 277.065 273.385C275.468 277.134 272.41 280.168 269.659 282.864C267.088 285.381 264.369 287.951 261.195 289.183C258.021 290.416 254.149 290.237 250.615 290.237C247.092 290.237 243.505 290.026 240.035 289.183C236.448 288.309 232.502 286.961 229.455 284.971C226.545 283.054 224.249 280.515 222.049 277.598C219.583 274.312 217.129 269.772 215.7 266.012C214.484 262.779 213.5 259.482 213.584 256.533C213.669 253.911 214.219 251.309 215.7 249.161C217.446 246.633 221.075 243.863 224.165 242.841C227.095 241.862 230.555 242.336 233.687 242.841C236.903 243.357 240.141 244.505 243.209 246.001C246.499 247.602 250.224 249.75 252.731 252.32C255.08 254.722 257.005 258.176 258.021 260.746C258.772 262.631 259.439 264.422 259.079 266.012C258.73 267.582 257.926 269.056 255.905 270.225C250.795 273.174 230.851 273.89 222.049 274.438C216.462 274.786 212.146 274.975 208.294 274.438C205.417 274.038 203.459 274.017 200.888 272.332C196.582 269.499 190.403 260.925 187.134 255.48C184.542 251.151 180.564 245.242 181.844 242.841C182.987 240.714 189.335 240.071 192.424 240.735C195.27 241.335 197.64 243.747 199.83 246.001C202.295 248.529 204.634 251.33 206.178 255.48C208.506 261.683 210.029 275.523 209.352 280.758C209.035 283.222 208.474 284.791 207.236 286.024C206.009 287.246 204.105 287.614 201.946 288.13C198.867 288.867 194.604 289.236 190.308 289.183C184.965 289.11 178.427 288.383 172.322 287.077C165.741 285.666 158.377 283.517 152.219 280.758C146.453 278.167 141.036 275.344 136.349 271.278C131.451 267.013 126.277 260.862 123.653 255.48C121.473 250.993 120.987 246.19 120.479 241.788C120.024 237.786 119.77 233.899 120.479 230.202C121.188 226.537 122.817 222.956 124.711 219.67C126.668 216.279 128.996 213.319 132.117 210.191C136.032 206.283 141.322 201.986 146.929 198.605C153.161 194.845 160.599 191.717 168.09 189.126C176.057 186.377 185.145 183.828 193.482 182.807C201.354 181.838 209.511 181.448 216.758 182.807C223.551 184.071 230.322 186.956 235.803 190.179C240.733 193.076 245.283 196.657 248.499 200.712C251.483 204.461 254.181 209.464 254.847 213.351C255.365 216.352 255.038 219.249 253.789 221.776C252.414 224.578 249.472 227.401 246.383 229.149C242.934 231.098 238.437 231.972 233.687 232.309C227.783 232.72 220.514 231.74 213.584 230.202C205.766 228.464 196.984 225.02 189.25 221.776C181.844 218.659 174.448 215.288 168.09 211.244C162.207 207.495 156.832 202.913 152.219 198.605C148.167 194.814 144.327 191.212 141.639 187.02C139.142 183.091 137.407 178.762 136.349 174.381C135.291 169.989 134.582 164.301 135.291 160.689C135.81 158.087 136.878 155.949 138.465 154.369C140.052 152.79 142.179 152.031 144.813 151.21C148.654 150.02 154.304 149.335 159.626 149.103C165.804 148.829 172.47 149.303 179.728 150.156C188.446 151.178 206.274 153 208.294 155.423C208.844 156.076 208.675 156.676 208.294 157.529C207.321 159.72 201.576 164.702 197.714 167.008C194.127 169.157 190.17 170.178 186.076 171.221C181.738 172.327 177.326 173.465 172.322 173.328C166.249 173.159 158.821 171.168 152.219 169.115C145.416 166.998 138.455 163.775 132.117 160.689C126.15 157.771 115.157 152.768 115.189 151.21C115.21 150.662 116.416 150.083 117.305 150.156C119.061 150.293 121.96 152.716 124.711 155.423C129.747 160.352 139.047 172.432 142.697 179.647C145.226 184.618 146.369 189.611 146.929 193.339C147.31 195.814 147.659 197.057 146.929 199.658C145.512 204.777 138.285 215.952 134.233 220.723C131.694 223.714 127.483 224.694 126.827 227.043C126.287 228.981 127.779 232.193 128.943 233.362C129.768 234.184 130.594 234.32 132.117 234.415C135.915 234.626 144.284 231.224 152.219 230.202C163.487 228.738 189.292 231.529 193.482 228.096C194.847 226.979 194.752 225.895 194.54 223.883C193.937 218.069 184.521 200.522 178.67 191.233C173.771 183.439 168.471 177.151 162.8 171.221C157.488 165.66 151.987 160.836 145.871 156.476C139.661 152.042 132.054 146.828 125.769 144.89C120.934 143.395 116.575 143.489 112.015 143.837C107.402 144.174 101.921 144.975 98.2606 146.997C95.1077 148.735 91.6268 152.526 90.8544 154.369C90.5159 155.191 90.3889 156.065 90.8544 156.476C91.7961 157.297 95.4991 156.423 99.3186 155.423C108.28 153.063 130.096 142.205 142.697 137.518C152.219 133.979 159.742 131.219 168.09 129.092C175.951 127.091 184.087 125.742 191.366 124.879C197.725 124.12 205.459 123.457 209.352 123.826C211.278 124.005 213.521 124.278 213.584 124.879C213.68 125.753 209.12 127.607 205.12 129.092C196.646 132.241 174.903 136.085 163.858 139.624C156.208 142.068 150.389 144.111 144.813 146.997C139.999 149.482 135.873 152.189 132.117 155.423C128.499 158.54 125.102 162.153 122.595 165.955C120.225 169.557 118.691 173.359 117.305 177.541C115.802 182.08 114.617 187.757 114.131 192.286C113.729 196.067 113.655 199.258 114.131 202.818C114.649 206.62 115.929 211.592 117.305 214.404C118.225 216.268 118.998 217.458 120.479 218.617C122.309 220.039 125.208 221.071 127.885 221.776C130.816 222.545 133.863 223.093 137.407 222.83C142.062 222.482 148.887 220.965 153.277 218.617C157.15 216.542 159.53 213.93 162.8 210.191C167.54 204.767 174.618 193.571 177.612 188.073C179.262 185.05 180.342 182.849 180.786 180.7C181.114 179.131 181.241 177.583 180.786 176.487C180.405 175.56 179.664 174.613 178.67 174.381C177.189 174.033 174.142 175.065 172.322 176.487C170.11 178.225 168.83 180.985 167.032 184.913C163.614 192.412 158.515 209.022 156.451 219.67C154.769 228.37 154.526 235.721 154.335 243.894C154.145 252.225 154.388 260.114 155.393 269.172C156.589 279.873 160.366 303.823 161.742 303.929C162.165 303.96 162.726 302.223 162.8 300.769C162.979 297.673 161.403 292.143 159.626 286.024C156.526 275.323 147.659 255.248 143.755 242.841C140.888 233.678 138.486 226.927 137.407 218.617C136.307 210.086 136.201 200.491 137.407 192.286C138.518 184.787 140.391 177.551 143.755 171.221C147.109 164.923 152.706 158.351 157.51 154.369C161.255 151.262 164.704 149.598 169.148 148.05C174.364 146.228 180.659 145.448 187.134 144.89C194.614 144.237 202.602 144.111 211.468 144.89C222.334 145.838 237.633 148.376 247.441 151.21C254.604 153.274 261.322 156.17 265.427 158.582C267.85 160.004 270.008 161.31 270.717 162.795C271.215 163.806 271.162 164.775 270.717 165.955C269.956 168.019 267.088 170.737 264.369 173.328C260.592 176.93 255.662 181.058 249.557 184.913C241.177 190.2 225.921 197.626 217.816 200.712C213.098 202.502 209.903 203.376 206.178 203.871C202.877 204.314 199.481 204.324 196.656 203.871C194.297 203.482 192.075 202.987 190.308 201.765C188.541 200.533 186.954 198.363 186.076 196.499C185.304 194.835 184.912 193.381 185.018 191.233C185.198 187.715 186.52 182.322 189.25 177.541C193.196 170.631 202.856 160.489 209.352 155.423C214.05 151.757 218.06 149.788 223.107 148.05C228.566 146.165 234.131 145.491 241.093 144.89C250.583 144.058 264.634 144.006 274.949 144.89C283.773 145.649 296.872 144.659 299.284 149.103C301.685 153.495 293.634 163.912 289.762 171.221C285.625 179.026 274.949 194.392 274.949 194.392" stroke="black" stroke-width="3.36901" stroke-linecap="round"/>
<path d="M446.768 241.768C447.744 240.791 447.744 239.209 446.768 238.232L430.858 222.322C429.882 221.346 428.299 221.346 427.322 222.322C426.346 223.299 426.346 224.882 427.322 225.858L441.464 240L427.322 254.142C426.346 255.118 426.346 256.701 427.322 257.678C428.299 258.654 429.882 258.654 430.858 257.678L446.768 241.768ZM351 242.5H445V237.5H351V242.5Z" fill="black"/>
<path d="M520.867 65V54.7891H522.82V63.3516H527.133V65H520.867ZM536.359 60.9688C536.359 61.5938 536.271 62.1667 536.094 62.6875C535.917 63.2031 535.661 63.6458 535.328 64.0156C534.995 64.3854 534.586 64.6719 534.102 64.875C533.617 65.0781 533.065 65.1797 532.445 65.1797C531.857 65.1797 531.331 65.0938 530.867 64.9219C530.404 64.75 530.01 64.4948 529.688 64.1562C529.365 63.8125 529.117 63.3854 528.945 62.875C528.773 62.3594 528.688 61.7604 528.688 61.0781C528.688 60.4479 528.776 59.875 528.953 59.3594C529.135 58.8438 529.393 58.4036 529.727 58.0391C530.065 57.6745 530.477 57.3932 530.961 57.1953C531.445 56.9922 531.992 56.8906 532.602 56.8906C533.195 56.8906 533.724 56.9792 534.188 57.1562C534.651 57.3281 535.044 57.5859 535.367 57.9297C535.69 58.2734 535.935 58.7005 536.102 59.2109C536.273 59.7161 536.359 60.3021 536.359 60.9688ZM534.375 61.0156C534.375 60.1927 534.219 59.5755 533.906 59.1641C533.599 58.7474 533.143 58.5391 532.539 58.5391C532.206 58.5391 531.922 58.6042 531.688 58.7344C531.453 58.8646 531.26 59.0443 531.109 59.2734C530.958 59.4974 530.846 59.7604 530.773 60.0625C530.706 60.3646 530.672 60.6875 530.672 61.0312C530.672 61.8594 530.839 62.4844 531.172 62.9062C531.505 63.3229 531.961 63.5312 532.539 63.5312C532.857 63.5312 533.133 63.4688 533.367 63.3438C533.602 63.2135 533.792 63.0365 533.938 62.8125C534.083 62.5833 534.193 62.3151 534.266 62.0078C534.339 61.7005 534.375 61.3698 534.375 61.0156ZM544.523 65H542.406L541.562 62.4844L541.305 61.6094L541.047 62.5078L540.234 65H538.109L536.984 57.0625H538.797L539.367 61.5469L539.5 62.7734L539.82 61.6719L540.617 59.2578H542.07L542.922 61.6562L543.289 62.7891L543.438 61.5312L543.914 57.0625H545.641L544.523 65ZM562.023 64.6953C561.648 64.8464 561.26 64.9583 560.859 65.0312C560.458 65.1042 560.039 65.1406 559.602 65.1406C558.971 65.1406 558.406 65.0547 557.906 64.8828C557.406 64.7109 556.982 64.4557 556.633 64.1172C556.284 63.7786 556.016 63.3594 555.828 62.8594C555.646 62.3594 555.555 61.7812 555.555 61.125C555.555 60.4896 555.654 59.9141 555.852 59.3984C556.055 58.8828 556.339 58.4427 556.703 58.0781C557.068 57.7135 557.505 57.4323 558.016 57.2344C558.531 57.0365 559.104 56.9375 559.734 56.9375C560.25 56.9375 560.682 56.9661 561.031 57.0234C561.385 57.0755 561.703 57.1432 561.984 57.2266V59.0781C561.661 58.9167 561.31 58.7917 560.93 58.7031C560.555 58.6146 560.198 58.5703 559.859 58.5703C559.505 58.5703 559.188 58.6302 558.906 58.75C558.625 58.8698 558.388 59.0365 558.195 59.25C558.003 59.4635 557.854 59.724 557.75 60.0312C557.651 60.3333 557.602 60.6667 557.602 61.0312C557.602 61.4115 557.656 61.7526 557.766 62.0547C557.875 62.3568 558.029 62.6146 558.227 62.8281C558.43 63.0365 558.672 63.1979 558.953 63.3125C559.234 63.4219 559.547 63.4766 559.891 63.4766C560.057 63.4766 560.232 63.4661 560.414 63.4453C560.602 63.4193 560.786 63.3854 560.969 63.3438C561.156 63.2969 561.339 63.2448 561.516 63.1875C561.698 63.1302 561.867 63.0677 562.023 63V64.6953ZM571.547 60.9688C571.547 61.5938 571.458 62.1667 571.281 62.6875C571.104 63.2031 570.849 63.6458 570.516 64.0156C570.182 64.3854 569.773 64.6719 569.289 64.875C568.805 65.0781 568.253 65.1797 567.633 65.1797C567.044 65.1797 566.518 65.0938 566.055 64.9219C565.591 64.75 565.198 64.4948 564.875 64.1562C564.552 63.8125 564.305 63.3854 564.133 62.875C563.961 62.3594 563.875 61.7604 563.875 61.0781C563.875 60.4479 563.964 59.875 564.141 59.3594C564.323 58.8438 564.581 58.4036 564.914 58.0391C565.253 57.6745 565.664 57.3932 566.148 57.1953C566.633 56.9922 567.18 56.8906 567.789 56.8906C568.383 56.8906 568.911 56.9792 569.375 57.1562C569.839 57.3281 570.232 57.5859 570.555 57.9297C570.878 58.2734 571.122 58.7005 571.289 59.2109C571.461 59.7161 571.547 60.3021 571.547 60.9688ZM569.562 61.0156C569.562 60.1927 569.406 59.5755 569.094 59.1641C568.786 58.7474 568.331 58.5391 567.727 58.5391C567.393 58.5391 567.109 58.6042 566.875 58.7344C566.641 58.8646 566.448 59.0443 566.297 59.2734C566.146 59.4974 566.034 59.7604 565.961 60.0625C565.893 60.3646 565.859 60.6875 565.859 61.0312C565.859 61.8594 566.026 62.4844 566.359 62.9062C566.693 63.3229 567.148 63.5312 567.727 63.5312C568.044 63.5312 568.32 63.4688 568.555 63.3438C568.789 63.2135 568.979 63.0365 569.125 62.8125C569.271 62.5833 569.38 62.3151 569.453 62.0078C569.526 61.7005 569.562 61.3698 569.562 61.0156ZM577.93 65V59.8281C577.93 58.9583 577.607 58.5234 576.961 58.5234C576.638 58.5234 576.328 58.6536 576.031 58.9141C575.74 59.1745 575.43 59.5286 575.102 59.9766V65H573.195V53.9609H575.102V56.6797L575.008 58.1172C575.169 57.9245 575.333 57.7526 575.5 57.6016C575.667 57.4453 575.846 57.3151 576.039 57.2109C576.232 57.1068 576.44 57.0286 576.664 56.9766C576.888 56.9193 577.135 56.8906 577.406 56.8906C577.812 56.8906 578.167 56.9583 578.469 57.0938C578.771 57.224 579.023 57.4115 579.227 57.6562C579.43 57.8958 579.581 58.1875 579.68 58.5312C579.784 58.8698 579.836 59.25 579.836 59.6719V65H577.93ZM588.906 60.4219C588.906 60.5521 588.901 60.7214 588.891 60.9297C588.885 61.138 588.875 61.3333 588.859 61.5156H583.641C583.641 61.8646 583.693 62.1719 583.797 62.4375C583.906 62.7031 584.057 62.9271 584.25 63.1094C584.448 63.2865 584.682 63.4219 584.953 63.5156C585.229 63.6094 585.534 63.6562 585.867 63.6562C586.253 63.6562 586.664 63.6276 587.102 63.5703C587.544 63.5078 588.003 63.4089 588.477 63.2734V64.7891C588.273 64.8464 588.052 64.8984 587.812 64.9453C587.573 64.9922 587.328 65.0339 587.078 65.0703C586.828 65.1068 586.576 65.1328 586.32 65.1484C586.065 65.1693 585.818 65.1797 585.578 65.1797C584.974 65.1797 584.432 65.0938 583.953 64.9219C583.474 64.75 583.068 64.4974 582.734 64.1641C582.401 63.8255 582.146 63.4089 581.969 62.9141C581.792 62.4193 581.703 61.8464 581.703 61.1953C581.703 60.5495 581.792 59.9635 581.969 59.4375C582.146 58.9062 582.396 58.4531 582.719 58.0781C583.042 57.6979 583.432 57.4062 583.891 57.2031C584.354 56.9948 584.87 56.8906 585.438 56.8906C586 56.8906 586.497 56.9792 586.93 57.1562C587.362 57.3281 587.724 57.5703 588.016 57.8828C588.307 58.1953 588.529 58.5677 588.68 59C588.831 59.4323 588.906 59.9062 588.906 60.4219ZM586.969 60.1484C586.974 59.8359 586.935 59.5651 586.852 59.3359C586.768 59.1016 586.654 58.9089 586.508 58.7578C586.367 58.6068 586.201 58.4948 586.008 58.4219C585.82 58.349 585.617 58.3125 585.398 58.3125C584.919 58.3125 584.526 58.474 584.219 58.7969C583.911 59.1146 583.729 59.5651 583.672 60.1484H586.969ZM597.336 62.6641C597.336 63.1172 597.234 63.5052 597.031 63.8281C596.833 64.1458 596.568 64.4062 596.234 64.6094C595.906 64.8073 595.531 64.9505 595.109 65.0391C594.693 65.1328 594.266 65.1797 593.828 65.1797C593.245 65.1797 592.719 65.151 592.25 65.0938C591.781 65.0417 591.339 64.9635 590.922 64.8594V63.1406C591.411 63.3438 591.898 63.4922 592.383 63.5859C592.872 63.6745 593.333 63.7188 593.766 63.7188C594.266 63.7188 594.638 63.6406 594.883 63.4844C595.133 63.3229 595.258 63.1146 595.258 62.8594C595.258 62.7396 595.232 62.6302 595.18 62.5312C595.128 62.4323 595.029 62.3385 594.883 62.25C594.742 62.1562 594.542 62.0625 594.281 61.9688C594.021 61.8698 593.68 61.7604 593.258 61.6406C592.867 61.5312 592.523 61.4089 592.227 61.2734C591.935 61.1328 591.693 60.9688 591.5 60.7812C591.307 60.5938 591.161 60.3776 591.062 60.1328C590.969 59.8828 590.922 59.5911 590.922 59.2578C590.922 58.9349 590.995 58.6302 591.141 58.3438C591.286 58.0573 591.503 57.8073 591.789 57.5938C592.081 57.375 592.443 57.2031 592.875 57.0781C593.307 56.9531 593.812 56.8906 594.391 56.8906C594.891 56.8906 595.333 56.9167 595.719 56.9688C596.104 57.0208 596.445 57.0781 596.742 57.1406V58.6953C596.289 58.5495 595.862 58.4479 595.461 58.3906C595.065 58.3281 594.672 58.2969 594.281 58.2969C593.891 58.2969 593.576 58.3672 593.336 58.5078C593.102 58.6484 592.984 58.8438 592.984 59.0938C592.984 59.2135 593.008 59.3203 593.055 59.4141C593.102 59.5078 593.193 59.599 593.328 59.6875C593.469 59.776 593.661 59.8698 593.906 59.9688C594.156 60.0625 594.484 60.1667 594.891 60.2812C595.349 60.4115 595.734 60.5521 596.047 60.7031C596.359 60.849 596.609 61.0156 596.797 61.2031C596.99 61.3906 597.128 61.6042 597.211 61.8438C597.294 62.0833 597.336 62.3568 597.336 62.6641ZM604.258 54.8906C604.258 55.0625 604.227 55.224 604.164 55.375C604.102 55.526 604.013 55.6589 603.898 55.7734C603.789 55.8828 603.659 55.9714 603.508 56.0391C603.357 56.1016 603.193 56.1328 603.016 56.1328C602.839 56.1328 602.672 56.1016 602.516 56.0391C602.365 55.9714 602.232 55.8828 602.117 55.7734C602.008 55.6589 601.922 55.526 601.859 55.375C601.797 55.224 601.766 55.0625 601.766 54.8906C601.766 54.7188 601.797 54.5573 601.859 54.4062C601.922 54.2552 602.008 54.1224 602.117 54.0078C602.232 53.8932 602.365 53.8047 602.516 53.7422C602.672 53.6745 602.839 53.6406 603.016 53.6406C603.193 53.6406 603.357 53.6745 603.508 53.7422C603.659 53.8047 603.789 53.8932 603.898 54.0078C604.013 54.1224 604.102 54.2552 604.164 54.4062C604.227 54.5573 604.258 54.7188 604.258 54.8906ZM602.148 58.5469H599.906V57.0625H604.102V63.5156H606.391V65H599.633V63.5156H602.148V58.5469ZM615.531 60.9688C615.531 61.5938 615.443 62.1667 615.266 62.6875C615.089 63.2031 614.833 63.6458 614.5 64.0156C614.167 64.3854 613.758 64.6719 613.273 64.875C612.789 65.0781 612.237 65.1797 611.617 65.1797C611.029 65.1797 610.503 65.0938 610.039 64.9219C609.576 64.75 609.182 64.4948 608.859 64.1562C608.536 63.8125 608.289 63.3854 608.117 62.875C607.945 62.3594 607.859 61.7604 607.859 61.0781C607.859 60.4479 607.948 59.875 608.125 59.3594C608.307 58.8438 608.565 58.4036 608.898 58.0391C609.237 57.6745 609.648 57.3932 610.133 57.1953C610.617 56.9922 611.164 56.8906 611.773 56.8906C612.367 56.8906 612.896 56.9792 613.359 57.1562C613.823 57.3281 614.216 57.5859 614.539 57.9297C614.862 58.2734 615.107 58.7005 615.273 59.2109C615.445 59.7161 615.531 60.3021 615.531 60.9688ZM613.547 61.0156C613.547 60.1927 613.391 59.5755 613.078 59.1641C612.771 58.7474 612.315 58.5391 611.711 58.5391C611.378 58.5391 611.094 58.6042 610.859 58.7344C610.625 58.8646 610.432 59.0443 610.281 59.2734C610.13 59.4974 610.018 59.7604 609.945 60.0625C609.878 60.3646 609.844 60.6875 609.844 61.0312C609.844 61.8594 610.01 62.4844 610.344 62.9062C610.677 63.3229 611.133 63.5312 611.711 63.5312C612.029 63.5312 612.305 63.4688 612.539 63.3438C612.773 63.2135 612.964 63.0365 613.109 62.8125C613.255 62.5833 613.365 62.3151 613.438 62.0078C613.51 61.7005 613.547 61.3698 613.547 61.0156ZM621.914 65V59.8281C621.914 58.9583 621.591 58.5234 620.945 58.5234C620.622 58.5234 620.312 58.6536 620.016 58.9141C619.724 59.1745 619.414 59.5286 619.086 59.9766V65H617.18V57.0625H618.828L618.875 58.2344C619.036 58.0312 619.203 57.8464 619.375 57.6797C619.552 57.513 619.742 57.3724 619.945 57.2578C620.148 57.138 620.367 57.0469 620.602 56.9844C620.836 56.9219 621.099 56.8906 621.391 56.8906C621.797 56.8906 622.151 56.9583 622.453 57.0938C622.755 57.224 623.008 57.4115 623.211 57.6562C623.414 57.8958 623.565 58.1875 623.664 58.5312C623.768 58.8698 623.82 59.25 623.82 59.6719V65H621.914ZM639.609 68.2812C638.344 67.2083 637.393 66.0573 636.758 64.8281C636.128 63.599 635.812 62.276 635.812 60.8594C635.812 60.0677 635.906 59.3203 636.094 58.6172C636.281 57.9089 636.544 57.2448 636.883 56.625C637.227 56.0052 637.633 55.4245 638.102 54.8828C638.576 54.3359 639.094 53.8255 639.656 53.3516L640.742 54.4375C639.727 55.349 638.964 56.3333 638.453 57.3906C637.943 58.4479 637.688 59.5599 637.688 60.7266C637.688 61.9089 637.943 63.0469 638.453 64.1406C638.964 65.2292 639.727 66.224 640.742 67.125L639.609 68.2812ZM650.711 60.8906C650.711 61.6198 650.607 62.25 650.398 62.7812C650.195 63.3125 649.909 63.7552 649.539 64.1094C649.174 64.4583 648.742 64.7188 648.242 64.8906C647.742 65.0573 647.198 65.1406 646.609 65.1406C646.031 65.1406 645.492 65.0964 644.992 65.0078C644.497 64.9245 644.023 64.8099 643.57 64.6641V53.9609H645.477V56.5547L645.398 58.1172C645.685 57.7474 646.018 57.4505 646.398 57.2266C646.784 57.0026 647.245 56.8906 647.781 56.8906C648.25 56.8906 648.667 56.9844 649.031 57.1719C649.396 57.3594 649.701 57.6276 649.945 57.9766C650.195 58.3203 650.385 58.7396 650.516 59.2344C650.646 59.724 650.711 60.276 650.711 60.8906ZM648.711 60.9688C648.711 60.5312 648.68 60.1589 648.617 59.8516C648.555 59.5443 648.464 59.2917 648.344 59.0938C648.229 58.8958 648.086 58.7526 647.914 58.6641C647.747 58.5703 647.555 58.5234 647.336 58.5234C647.013 58.5234 646.703 58.6536 646.406 58.9141C646.115 59.1745 645.805 59.5286 645.477 59.9766V63.4453C645.628 63.5026 645.812 63.5495 646.031 63.5859C646.255 63.6224 646.482 63.6406 646.711 63.6406C647.013 63.6406 647.286 63.5781 647.531 63.4531C647.781 63.3281 647.992 63.151 648.164 62.9219C648.341 62.6927 648.477 62.4141 648.57 62.0859C648.664 61.7526 648.711 61.3802 648.711 60.9688ZM657.344 65L657.297 63.9609C657.13 64.138 656.956 64.3021 656.773 64.4531C656.591 64.599 656.391 64.7266 656.172 64.8359C655.953 64.9453 655.714 65.0286 655.453 65.0859C655.198 65.1484 654.917 65.1797 654.609 65.1797C654.203 65.1797 653.846 65.1198 653.539 65C653.232 64.8802 652.974 64.7135 652.766 64.5C652.557 64.2865 652.398 64.0286 652.289 63.7266C652.185 63.4245 652.133 63.0911 652.133 62.7266C652.133 62.3516 652.211 62.0052 652.367 61.6875C652.529 61.3698 652.771 61.0964 653.094 60.8672C653.422 60.638 653.828 60.4583 654.312 60.3281C654.802 60.1979 655.375 60.1328 656.031 60.1328H657.07V59.6562C657.07 59.4531 657.042 59.2708 656.984 59.1094C656.927 58.9427 656.833 58.8021 656.703 58.6875C656.578 58.5729 656.414 58.4844 656.211 58.4219C656.008 58.3594 655.758 58.3281 655.461 58.3281C654.992 58.3281 654.529 58.3828 654.07 58.4922C653.617 58.5964 653.177 58.7448 652.75 58.9375V57.4141C653.13 57.263 653.568 57.138 654.062 57.0391C654.562 56.9401 655.081 56.8906 655.617 56.8906C656.206 56.8906 656.711 56.9479 657.133 57.0625C657.555 57.1719 657.901 57.3385 658.172 57.5625C658.448 57.7865 658.651 58.0677 658.781 58.4062C658.911 58.7396 658.977 59.1302 658.977 59.5781V65H657.344ZM657.07 61.4922H655.906C655.583 61.4922 655.31 61.5234 655.086 61.5859C654.862 61.6484 654.68 61.7344 654.539 61.8438C654.398 61.9531 654.294 62.0807 654.227 62.2266C654.164 62.3672 654.133 62.5182 654.133 62.6797C654.133 63.0026 654.237 63.25 654.445 63.4219C654.654 63.5885 654.938 63.6719 655.297 63.6719C655.562 63.6719 655.839 63.5755 656.125 63.3828C656.411 63.1901 656.727 62.9141 657.07 62.5547V61.4922ZM666.156 65L666.109 63.8281C665.943 64.0312 665.771 64.2161 665.594 64.3828C665.417 64.5495 665.227 64.6927 665.023 64.8125C664.82 64.9271 664.602 65.0156 664.367 65.0781C664.138 65.1458 663.883 65.1797 663.602 65.1797C663.133 65.1797 662.716 65.0859 662.352 64.8984C661.987 64.7109 661.68 64.4453 661.43 64.1016C661.185 63.7526 660.997 63.3307 660.867 62.8359C660.737 62.3411 660.672 61.7891 660.672 61.1797C660.672 60.4505 660.773 59.8203 660.977 59.2891C661.185 58.7526 661.471 58.3099 661.836 57.9609C662.201 57.6068 662.633 57.3464 663.133 57.1797C663.633 57.0078 664.177 56.9219 664.766 56.9219C664.964 56.9219 665.161 56.9349 665.359 56.9609C665.562 56.987 665.742 57.0208 665.898 57.0625V53.9609H667.805V65H666.156ZM662.672 61.0938C662.672 61.5312 662.701 61.9062 662.758 62.2188C662.82 62.526 662.909 62.7786 663.023 62.9766C663.143 63.1745 663.289 63.3203 663.461 63.4141C663.633 63.5026 663.828 63.5469 664.047 63.5469C664.37 63.5469 664.677 63.4167 664.969 63.1562C665.26 62.8958 665.57 62.5391 665.898 62.0859V58.6172C665.747 58.5599 665.56 58.513 665.336 58.4766C665.117 58.4401 664.896 58.4219 664.672 58.4219C664.365 58.4219 664.089 58.4844 663.844 58.6094C663.599 58.7344 663.388 58.9115 663.211 59.1406C663.039 59.3698 662.906 59.651 662.812 59.9844C662.719 60.3125 662.672 60.6823 662.672 61.0938ZM671.789 53.3516C673.065 54.4141 674.016 55.5625 674.641 56.7969C675.266 58.026 675.578 59.3516 675.578 60.7734C675.578 61.5651 675.484 62.3125 675.297 63.0156C675.109 63.7188 674.846 64.3828 674.508 65.0078C674.174 65.6328 673.773 66.2161 673.305 66.7578C672.836 67.3047 672.32 67.8125 671.758 68.2812L670.664 67.1953C671.685 66.2839 672.451 65.2969 672.961 64.2344C673.471 63.1719 673.727 62.0573 673.727 60.8906C673.727 59.7135 673.471 58.5781 672.961 57.4844C672.451 56.3906 671.685 55.3906 670.664 54.4844L671.789 53.3516Z" fill="black"/>
<path d="M519.164 228V223.555H515.695V228H513.773V217.789H515.695V221.891H519.164V217.789H521.086V228H519.164ZM527.586 217.891C527.586 218.062 527.555 218.224 527.492 218.375C527.43 218.526 527.341 218.659 527.227 218.773C527.117 218.883 526.987 218.971 526.836 219.039C526.685 219.102 526.521 219.133 526.344 219.133C526.167 219.133 526 219.102 525.844 219.039C525.693 218.971 525.56 218.883 525.445 218.773C525.336 218.659 525.25 218.526 525.188 218.375C525.125 218.224 525.094 218.062 525.094 217.891C525.094 217.719 525.125 217.557 525.188 217.406C525.25 217.255 525.336 217.122 525.445 217.008C525.56 216.893 525.693 216.805 525.844 216.742C526 216.674 526.167 216.641 526.344 216.641C526.521 216.641 526.685 216.674 526.836 216.742C526.987 216.805 527.117 216.893 527.227 217.008C527.341 217.122 527.43 217.255 527.492 217.406C527.555 217.557 527.586 217.719 527.586 217.891ZM525.477 221.547H523.234V220.062H527.43V226.516H529.719V228H522.961V226.516H525.477V221.547ZM537.664 221.453C537.81 221.635 537.911 221.828 537.969 222.031C538.031 222.229 538.062 222.432 538.062 222.641C538.062 223.083 537.984 223.474 537.828 223.812C537.677 224.151 537.461 224.435 537.18 224.664C536.904 224.893 536.57 225.068 536.18 225.188C535.794 225.302 535.367 225.359 534.898 225.359C534.622 225.359 534.367 225.333 534.133 225.281C533.898 225.224 533.721 225.159 533.602 225.086C533.513 225.174 533.438 225.273 533.375 225.383C533.312 225.487 533.281 225.607 533.281 225.742C533.281 225.826 533.302 225.909 533.344 225.992C533.385 226.076 533.445 226.151 533.523 226.219C533.607 226.281 533.703 226.333 533.812 226.375C533.927 226.417 534.055 226.44 534.195 226.445L536.078 226.516C536.5 226.526 536.88 226.581 537.219 226.68C537.562 226.773 537.857 226.909 538.102 227.086C538.346 227.263 538.534 227.479 538.664 227.734C538.799 227.984 538.867 228.271 538.867 228.594C538.867 228.964 538.784 229.312 538.617 229.641C538.451 229.969 538.198 230.253 537.859 230.492C537.526 230.737 537.109 230.93 536.609 231.07C536.109 231.211 535.529 231.281 534.867 231.281C534.227 231.281 533.674 231.229 533.211 231.125C532.753 231.026 532.375 230.885 532.078 230.703C531.786 230.521 531.57 230.302 531.43 230.047C531.289 229.797 531.219 229.521 531.219 229.219C531.219 229.036 531.242 228.867 531.289 228.711C531.336 228.555 531.406 228.404 531.5 228.258C531.594 228.117 531.711 227.979 531.852 227.844C531.992 227.708 532.159 227.573 532.352 227.438C532.096 227.292 531.901 227.104 531.766 226.875C531.635 226.646 531.57 226.401 531.57 226.141C531.57 225.964 531.594 225.799 531.641 225.648C531.688 225.492 531.747 225.344 531.82 225.203C531.898 225.062 531.987 224.927 532.086 224.797C532.185 224.667 532.289 224.539 532.398 224.414C532.206 224.221 532.044 223.99 531.914 223.719C531.789 223.443 531.727 223.099 531.727 222.688C531.727 222.245 531.805 221.852 531.961 221.508C532.122 221.159 532.344 220.867 532.625 220.633C532.906 220.393 533.24 220.214 533.625 220.094C534.016 219.969 534.44 219.906 534.898 219.906C535.133 219.906 535.357 219.919 535.57 219.945C535.789 219.966 535.987 220.005 536.164 220.062H538.914V221.453H537.664ZM533.172 229.055C533.172 229.362 533.326 229.589 533.633 229.734C533.945 229.88 534.383 229.953 534.945 229.953C535.305 229.953 535.607 229.919 535.852 229.852C536.102 229.784 536.305 229.695 536.461 229.586C536.617 229.477 536.729 229.349 536.797 229.203C536.865 229.057 536.898 228.906 536.898 228.75C536.898 228.609 536.865 228.49 536.797 228.391C536.734 228.297 536.643 228.216 536.523 228.148C536.409 228.086 536.271 228.036 536.109 228C535.953 227.969 535.779 227.948 535.586 227.938L533.906 227.906C533.755 228.01 533.63 228.109 533.531 228.203C533.438 228.297 533.362 228.388 533.305 228.477C533.253 228.57 533.216 228.664 533.195 228.758C533.18 228.852 533.172 228.951 533.172 229.055ZM533.492 222.688C533.492 223.109 533.615 223.445 533.859 223.695C534.109 223.94 534.456 224.062 534.898 224.062C535.133 224.062 535.336 224.023 535.508 223.945C535.685 223.867 535.831 223.763 535.945 223.633C536.06 223.503 536.146 223.352 536.203 223.18C536.26 223.008 536.289 222.828 536.289 222.641C536.289 222.198 536.164 221.854 535.914 221.609C535.669 221.359 535.326 221.234 534.883 221.234C534.648 221.234 534.443 221.273 534.266 221.352C534.094 221.43 533.951 221.536 533.836 221.672C533.721 221.802 533.635 221.956 533.578 222.133C533.521 222.31 533.492 222.495 533.492 222.688ZM545.242 228V222.828C545.242 221.958 544.919 221.523 544.273 221.523C543.951 221.523 543.641 221.654 543.344 221.914C543.052 222.174 542.742 222.529 542.414 222.977V228H540.508V216.961H542.414V219.68L542.32 221.117C542.482 220.924 542.646 220.753 542.812 220.602C542.979 220.445 543.159 220.315 543.352 220.211C543.544 220.107 543.753 220.029 543.977 219.977C544.201 219.919 544.448 219.891 544.719 219.891C545.125 219.891 545.479 219.958 545.781 220.094C546.083 220.224 546.336 220.411 546.539 220.656C546.742 220.896 546.893 221.188 546.992 221.531C547.096 221.87 547.148 222.25 547.148 222.672V228H545.242ZM564.523 227.695C564.148 227.846 563.76 227.958 563.359 228.031C562.958 228.104 562.539 228.141 562.102 228.141C561.471 228.141 560.906 228.055 560.406 227.883C559.906 227.711 559.482 227.456 559.133 227.117C558.784 226.779 558.516 226.359 558.328 225.859C558.146 225.359 558.055 224.781 558.055 224.125C558.055 223.49 558.154 222.914 558.352 222.398C558.555 221.883 558.839 221.443 559.203 221.078C559.568 220.714 560.005 220.432 560.516 220.234C561.031 220.036 561.604 219.938 562.234 219.938C562.75 219.938 563.182 219.966 563.531 220.023C563.885 220.076 564.203 220.143 564.484 220.227V222.078C564.161 221.917 563.81 221.792 563.43 221.703C563.055 221.615 562.698 221.57 562.359 221.57C562.005 221.57 561.688 221.63 561.406 221.75C561.125 221.87 560.888 222.036 560.695 222.25C560.503 222.464 560.354 222.724 560.25 223.031C560.151 223.333 560.102 223.667 560.102 224.031C560.102 224.411 560.156 224.753 560.266 225.055C560.375 225.357 560.529 225.615 560.727 225.828C560.93 226.036 561.172 226.198 561.453 226.312C561.734 226.422 562.047 226.477 562.391 226.477C562.557 226.477 562.732 226.466 562.914 226.445C563.102 226.419 563.286 226.385 563.469 226.344C563.656 226.297 563.839 226.245 564.016 226.188C564.198 226.13 564.367 226.068 564.523 226V227.695ZM574.047 223.969C574.047 224.594 573.958 225.167 573.781 225.688C573.604 226.203 573.349 226.646 573.016 227.016C572.682 227.385 572.273 227.672 571.789 227.875C571.305 228.078 570.753 228.18 570.133 228.18C569.544 228.18 569.018 228.094 568.555 227.922C568.091 227.75 567.698 227.495 567.375 227.156C567.052 226.812 566.805 226.385 566.633 225.875C566.461 225.359 566.375 224.76 566.375 224.078C566.375 223.448 566.464 222.875 566.641 222.359C566.823 221.844 567.081 221.404 567.414 221.039C567.753 220.674 568.164 220.393 568.648 220.195C569.133 219.992 569.68 219.891 570.289 219.891C570.883 219.891 571.411 219.979 571.875 220.156C572.339 220.328 572.732 220.586 573.055 220.93C573.378 221.273 573.622 221.701 573.789 222.211C573.961 222.716 574.047 223.302 574.047 223.969ZM572.062 224.016C572.062 223.193 571.906 222.576 571.594 222.164C571.286 221.747 570.831 221.539 570.227 221.539C569.893 221.539 569.609 221.604 569.375 221.734C569.141 221.865 568.948 222.044 568.797 222.273C568.646 222.497 568.534 222.76 568.461 223.062C568.393 223.365 568.359 223.688 568.359 224.031C568.359 224.859 568.526 225.484 568.859 225.906C569.193 226.323 569.648 226.531 570.227 226.531C570.544 226.531 570.82 226.469 571.055 226.344C571.289 226.214 571.479 226.036 571.625 225.812C571.771 225.583 571.88 225.315 571.953 225.008C572.026 224.701 572.062 224.37 572.062 224.016ZM580.43 228V222.828C580.43 221.958 580.107 221.523 579.461 221.523C579.138 221.523 578.828 221.654 578.531 221.914C578.24 222.174 577.93 222.529 577.602 222.977V228H575.695V216.961H577.602V219.68L577.508 221.117C577.669 220.924 577.833 220.753 578 220.602C578.167 220.445 578.346 220.315 578.539 220.211C578.732 220.107 578.94 220.029 579.164 219.977C579.388 219.919 579.635 219.891 579.906 219.891C580.312 219.891 580.667 219.958 580.969 220.094C581.271 220.224 581.523 220.411 581.727 220.656C581.93 220.896 582.081 221.188 582.18 221.531C582.284 221.87 582.336 222.25 582.336 222.672V228H580.43ZM591.406 223.422C591.406 223.552 591.401 223.721 591.391 223.93C591.385 224.138 591.375 224.333 591.359 224.516H586.141C586.141 224.865 586.193 225.172 586.297 225.438C586.406 225.703 586.557 225.927 586.75 226.109C586.948 226.286 587.182 226.422 587.453 226.516C587.729 226.609 588.034 226.656 588.367 226.656C588.753 226.656 589.164 226.628 589.602 226.57C590.044 226.508 590.503 226.409 590.977 226.273V227.789C590.773 227.846 590.552 227.898 590.312 227.945C590.073 227.992 589.828 228.034 589.578 228.07C589.328 228.107 589.076 228.133 588.82 228.148C588.565 228.169 588.318 228.18 588.078 228.18C587.474 228.18 586.932 228.094 586.453 227.922C585.974 227.75 585.568 227.497 585.234 227.164C584.901 226.826 584.646 226.409 584.469 225.914C584.292 225.419 584.203 224.846 584.203 224.195C584.203 223.549 584.292 222.964 584.469 222.438C584.646 221.906 584.896 221.453 585.219 221.078C585.542 220.698 585.932 220.406 586.391 220.203C586.854 219.995 587.37 219.891 587.938 219.891C588.5 219.891 588.997 219.979 589.43 220.156C589.862 220.328 590.224 220.57 590.516 220.883C590.807 221.195 591.029 221.568 591.18 222C591.331 222.432 591.406 222.906 591.406 223.422ZM589.469 223.148C589.474 222.836 589.435 222.565 589.352 222.336C589.268 222.102 589.154 221.909 589.008 221.758C588.867 221.607 588.701 221.495 588.508 221.422C588.32 221.349 588.117 221.312 587.898 221.312C587.419 221.312 587.026 221.474 586.719 221.797C586.411 222.115 586.229 222.565 586.172 223.148H589.469ZM599.836 225.664C599.836 226.117 599.734 226.505 599.531 226.828C599.333 227.146 599.068 227.406 598.734 227.609C598.406 227.807 598.031 227.951 597.609 228.039C597.193 228.133 596.766 228.18 596.328 228.18C595.745 228.18 595.219 228.151 594.75 228.094C594.281 228.042 593.839 227.964 593.422 227.859V226.141C593.911 226.344 594.398 226.492 594.883 226.586C595.372 226.674 595.833 226.719 596.266 226.719C596.766 226.719 597.138 226.641 597.383 226.484C597.633 226.323 597.758 226.115 597.758 225.859C597.758 225.74 597.732 225.63 597.68 225.531C597.628 225.432 597.529 225.339 597.383 225.25C597.242 225.156 597.042 225.062 596.781 224.969C596.521 224.87 596.18 224.76 595.758 224.641C595.367 224.531 595.023 224.409 594.727 224.273C594.435 224.133 594.193 223.969 594 223.781C593.807 223.594 593.661 223.378 593.562 223.133C593.469 222.883 593.422 222.591 593.422 222.258C593.422 221.935 593.495 221.63 593.641 221.344C593.786 221.057 594.003 220.807 594.289 220.594C594.581 220.375 594.943 220.203 595.375 220.078C595.807 219.953 596.312 219.891 596.891 219.891C597.391 219.891 597.833 219.917 598.219 219.969C598.604 220.021 598.945 220.078 599.242 220.141V221.695C598.789 221.549 598.362 221.448 597.961 221.391C597.565 221.328 597.172 221.297 596.781 221.297C596.391 221.297 596.076 221.367 595.836 221.508C595.602 221.648 595.484 221.844 595.484 222.094C595.484 222.214 595.508 222.32 595.555 222.414C595.602 222.508 595.693 222.599 595.828 222.688C595.969 222.776 596.161 222.87 596.406 222.969C596.656 223.062 596.984 223.167 597.391 223.281C597.849 223.411 598.234 223.552 598.547 223.703C598.859 223.849 599.109 224.016 599.297 224.203C599.49 224.391 599.628 224.604 599.711 224.844C599.794 225.083 599.836 225.357 599.836 225.664ZM606.758 217.891C606.758 218.062 606.727 218.224 606.664 218.375C606.602 218.526 606.513 218.659 606.398 218.773C606.289 218.883 606.159 218.971 606.008 219.039C605.857 219.102 605.693 219.133 605.516 219.133C605.339 219.133 605.172 219.102 605.016 219.039C604.865 218.971 604.732 218.883 604.617 218.773C604.508 218.659 604.422 218.526 604.359 218.375C604.297 218.224 604.266 218.062 604.266 217.891C604.266 217.719 604.297 217.557 604.359 217.406C604.422 217.255 604.508 217.122 604.617 217.008C604.732 216.893 604.865 216.805 605.016 216.742C605.172 216.674 605.339 216.641 605.516 216.641C605.693 216.641 605.857 216.674 606.008 216.742C606.159 216.805 606.289 216.893 606.398 217.008C606.513 217.122 606.602 217.255 606.664 217.406C606.727 217.557 606.758 217.719 606.758 217.891ZM604.648 221.547H602.406V220.062H606.602V226.516H608.891V228H602.133V226.516H604.648V221.547ZM618.031 223.969C618.031 224.594 617.943 225.167 617.766 225.688C617.589 226.203 617.333 226.646 617 227.016C616.667 227.385 616.258 227.672 615.773 227.875C615.289 228.078 614.737 228.18 614.117 228.18C613.529 228.18 613.003 228.094 612.539 227.922C612.076 227.75 611.682 227.495 611.359 227.156C611.036 226.812 610.789 226.385 610.617 225.875C610.445 225.359 610.359 224.76 610.359 224.078C610.359 223.448 610.448 222.875 610.625 222.359C610.807 221.844 611.065 221.404 611.398 221.039C611.737 220.674 612.148 220.393 612.633 220.195C613.117 219.992 613.664 219.891 614.273 219.891C614.867 219.891 615.396 219.979 615.859 220.156C616.323 220.328 616.716 220.586 617.039 220.93C617.362 221.273 617.607 221.701 617.773 222.211C617.945 222.716 618.031 223.302 618.031 223.969ZM616.047 224.016C616.047 223.193 615.891 222.576 615.578 222.164C615.271 221.747 614.815 221.539 614.211 221.539C613.878 221.539 613.594 221.604 613.359 221.734C613.125 221.865 612.932 222.044 612.781 222.273C612.63 222.497 612.518 222.76 612.445 223.062C612.378 223.365 612.344 223.688 612.344 224.031C612.344 224.859 612.51 225.484 612.844 225.906C613.177 226.323 613.633 226.531 614.211 226.531C614.529 226.531 614.805 226.469 615.039 226.344C615.273 226.214 615.464 226.036 615.609 225.812C615.755 225.583 615.865 225.315 615.938 225.008C616.01 224.701 616.047 224.37 616.047 224.016ZM624.414 228V222.828C624.414 221.958 624.091 221.523 623.445 221.523C623.122 221.523 622.812 221.654 622.516 221.914C622.224 222.174 621.914 222.529 621.586 222.977V228H619.68V220.062H621.328L621.375 221.234C621.536 221.031 621.703 220.846 621.875 220.68C622.052 220.513 622.242 220.372 622.445 220.258C622.648 220.138 622.867 220.047 623.102 219.984C623.336 219.922 623.599 219.891 623.891 219.891C624.297 219.891 624.651 219.958 624.953 220.094C625.255 220.224 625.508 220.411 625.711 220.656C625.914 220.896 626.065 221.188 626.164 221.531C626.268 221.87 626.32 222.25 626.32 222.672V228H624.414ZM642.109 231.281C640.844 230.208 639.893 229.057 639.258 227.828C638.628 226.599 638.312 225.276 638.312 223.859C638.312 223.068 638.406 222.32 638.594 221.617C638.781 220.909 639.044 220.245 639.383 219.625C639.727 219.005 640.133 218.424 640.602 217.883C641.076 217.336 641.594 216.826 642.156 216.352L643.242 217.438C642.227 218.349 641.464 219.333 640.953 220.391C640.443 221.448 640.188 222.56 640.188 223.727C640.188 224.909 640.443 226.047 640.953 227.141C641.464 228.229 642.227 229.224 643.242 230.125L642.109 231.281ZM652.023 221.453C652.169 221.635 652.271 221.828 652.328 222.031C652.391 222.229 652.422 222.432 652.422 222.641C652.422 223.083 652.344 223.474 652.188 223.812C652.036 224.151 651.82 224.435 651.539 224.664C651.263 224.893 650.93 225.068 650.539 225.188C650.154 225.302 649.727 225.359 649.258 225.359C648.982 225.359 648.727 225.333 648.492 225.281C648.258 225.224 648.081 225.159 647.961 225.086C647.872 225.174 647.797 225.273 647.734 225.383C647.672 225.487 647.641 225.607 647.641 225.742C647.641 225.826 647.661 225.909 647.703 225.992C647.745 226.076 647.805 226.151 647.883 226.219C647.966 226.281 648.062 226.333 648.172 226.375C648.286 226.417 648.414 226.44 648.555 226.445L650.438 226.516C650.859 226.526 651.24 226.581 651.578 226.68C651.922 226.773 652.216 226.909 652.461 227.086C652.706 227.263 652.893 227.479 653.023 227.734C653.159 227.984 653.227 228.271 653.227 228.594C653.227 228.964 653.143 229.312 652.977 229.641C652.81 229.969 652.557 230.253 652.219 230.492C651.885 230.737 651.469 230.93 650.969 231.07C650.469 231.211 649.888 231.281 649.227 231.281C648.586 231.281 648.034 231.229 647.57 231.125C647.112 231.026 646.734 230.885 646.438 230.703C646.146 230.521 645.93 230.302 645.789 230.047C645.648 229.797 645.578 229.521 645.578 229.219C645.578 229.036 645.602 228.867 645.648 228.711C645.695 228.555 645.766 228.404 645.859 228.258C645.953 228.117 646.07 227.979 646.211 227.844C646.352 227.708 646.518 227.573 646.711 227.438C646.456 227.292 646.26 227.104 646.125 226.875C645.995 226.646 645.93 226.401 645.93 226.141C645.93 225.964 645.953 225.799 646 225.648C646.047 225.492 646.107 225.344 646.18 225.203C646.258 225.062 646.346 224.927 646.445 224.797C646.544 224.667 646.648 224.539 646.758 224.414C646.565 224.221 646.404 223.99 646.273 223.719C646.148 223.443 646.086 223.099 646.086 222.688C646.086 222.245 646.164 221.852 646.32 221.508C646.482 221.159 646.703 220.867 646.984 220.633C647.266 220.393 647.599 220.214 647.984 220.094C648.375 219.969 648.799 219.906 649.258 219.906C649.492 219.906 649.716 219.919 649.93 219.945C650.148 219.966 650.346 220.005 650.523 220.062H653.273V221.453H652.023ZM647.531 229.055C647.531 229.362 647.685 229.589 647.992 229.734C648.305 229.88 648.742 229.953 649.305 229.953C649.664 229.953 649.966 229.919 650.211 229.852C650.461 229.784 650.664 229.695 650.82 229.586C650.977 229.477 651.089 229.349 651.156 229.203C651.224 229.057 651.258 228.906 651.258 228.75C651.258 228.609 651.224 228.49 651.156 228.391C651.094 228.297 651.003 228.216 650.883 228.148C650.768 228.086 650.63 228.036 650.469 228C650.312 227.969 650.138 227.948 649.945 227.938L648.266 227.906C648.115 228.01 647.99 228.109 647.891 228.203C647.797 228.297 647.721 228.388 647.664 228.477C647.612 228.57 647.576 228.664 647.555 228.758C647.539 228.852 647.531 228.951 647.531 229.055ZM647.852 222.688C647.852 223.109 647.974 223.445 648.219 223.695C648.469 223.94 648.815 224.062 649.258 224.062C649.492 224.062 649.695 224.023 649.867 223.945C650.044 223.867 650.19 223.763 650.305 223.633C650.419 223.503 650.505 223.352 650.562 223.18C650.62 223.008 650.648 222.828 650.648 222.641C650.648 222.198 650.523 221.854 650.273 221.609C650.029 221.359 649.685 221.234 649.242 221.234C649.008 221.234 648.802 221.273 648.625 221.352C648.453 221.43 648.31 221.536 648.195 221.672C648.081 221.802 647.995 221.956 647.938 222.133C647.88 222.31 647.852 222.495 647.852 222.688ZM662.016 223.969C662.016 224.594 661.927 225.167 661.75 225.688C661.573 226.203 661.318 226.646 660.984 227.016C660.651 227.385 660.242 227.672 659.758 227.875C659.273 228.078 658.721 228.18 658.102 228.18C657.513 228.18 656.987 228.094 656.523 227.922C656.06 227.75 655.667 227.495 655.344 227.156C655.021 226.812 654.773 226.385 654.602 225.875C654.43 225.359 654.344 224.76 654.344 224.078C654.344 223.448 654.432 222.875 654.609 222.359C654.792 221.844 655.049 221.404 655.383 221.039C655.721 220.674 656.133 220.393 656.617 220.195C657.102 219.992 657.648 219.891 658.258 219.891C658.852 219.891 659.38 219.979 659.844 220.156C660.307 220.328 660.701 220.586 661.023 220.93C661.346 221.273 661.591 221.701 661.758 222.211C661.93 222.716 662.016 223.302 662.016 223.969ZM660.031 224.016C660.031 223.193 659.875 222.576 659.562 222.164C659.255 221.747 658.799 221.539 658.195 221.539C657.862 221.539 657.578 221.604 657.344 221.734C657.109 221.865 656.917 222.044 656.766 222.273C656.615 222.497 656.503 222.76 656.43 223.062C656.362 223.365 656.328 223.688 656.328 224.031C656.328 224.859 656.495 225.484 656.828 225.906C657.161 226.323 657.617 226.531 658.195 226.531C658.513 226.531 658.789 226.469 659.023 226.344C659.258 226.214 659.448 226.036 659.594 225.812C659.74 225.583 659.849 225.315 659.922 225.008C659.995 224.701 660.031 224.37 660.031 224.016ZM670.812 223.969C670.812 224.594 670.724 225.167 670.547 225.688C670.37 226.203 670.115 226.646 669.781 227.016C669.448 227.385 669.039 227.672 668.555 227.875C668.07 228.078 667.518 228.18 666.898 228.18C666.31 228.18 665.784 228.094 665.32 227.922C664.857 227.75 664.464 227.495 664.141 227.156C663.818 226.812 663.57 226.385 663.398 225.875C663.227 225.359 663.141 224.76 663.141 224.078C663.141 223.448 663.229 222.875 663.406 222.359C663.589 221.844 663.846 221.404 664.18 221.039C664.518 220.674 664.93 220.393 665.414 220.195C665.898 219.992 666.445 219.891 667.055 219.891C667.648 219.891 668.177 219.979 668.641 220.156C669.104 220.328 669.497 220.586 669.82 220.93C670.143 221.273 670.388 221.701 670.555 222.211C670.727 222.716 670.812 223.302 670.812 223.969ZM668.828 224.016C668.828 223.193 668.672 222.576 668.359 222.164C668.052 221.747 667.596 221.539 666.992 221.539C666.659 221.539 666.375 221.604 666.141 221.734C665.906 221.865 665.714 222.044 665.562 222.273C665.411 222.497 665.299 222.76 665.227 223.062C665.159 223.365 665.125 223.688 665.125 224.031C665.125 224.859 665.292 225.484 665.625 225.906C665.958 226.323 666.414 226.531 666.992 226.531C667.31 226.531 667.586 226.469 667.82 226.344C668.055 226.214 668.245 226.036 668.391 225.812C668.536 225.583 668.646 225.315 668.719 225.008C668.792 224.701 668.828 224.37 668.828 224.016ZM677.453 228L677.406 226.828C677.24 227.031 677.068 227.216 676.891 227.383C676.714 227.549 676.523 227.693 676.32 227.812C676.117 227.927 675.898 228.016 675.664 228.078C675.435 228.146 675.18 228.18 674.898 228.18C674.43 228.18 674.013 228.086 673.648 227.898C673.284 227.711 672.977 227.445 672.727 227.102C672.482 226.753 672.294 226.331 672.164 225.836C672.034 225.341 671.969 224.789 671.969 224.18C671.969 223.451 672.07 222.82 672.273 222.289C672.482 221.753 672.768 221.31 673.133 220.961C673.497 220.607 673.93 220.346 674.43 220.18C674.93 220.008 675.474 219.922 676.062 219.922C676.26 219.922 676.458 219.935 676.656 219.961C676.859 219.987 677.039 220.021 677.195 220.062V216.961H679.102V228H677.453ZM673.969 224.094C673.969 224.531 673.997 224.906 674.055 225.219C674.117 225.526 674.206 225.779 674.32 225.977C674.44 226.174 674.586 226.32 674.758 226.414C674.93 226.503 675.125 226.547 675.344 226.547C675.667 226.547 675.974 226.417 676.266 226.156C676.557 225.896 676.867 225.539 677.195 225.086V221.617C677.044 221.56 676.857 221.513 676.633 221.477C676.414 221.44 676.193 221.422 675.969 221.422C675.661 221.422 675.385 221.484 675.141 221.609C674.896 221.734 674.685 221.911 674.508 222.141C674.336 222.37 674.203 222.651 674.109 222.984C674.016 223.312 673.969 223.682 673.969 224.094ZM683.086 216.352C684.362 217.414 685.312 218.562 685.938 219.797C686.562 221.026 686.875 222.352 686.875 223.773C686.875 224.565 686.781 225.312 686.594 226.016C686.406 226.719 686.143 227.383 685.805 228.008C685.471 228.633 685.07 229.216 684.602 229.758C684.133 230.305 683.617 230.812 683.055 231.281L681.961 230.195C682.982 229.284 683.747 228.297 684.258 227.234C684.768 226.172 685.023 225.057 685.023 223.891C685.023 222.714 684.768 221.578 684.258 220.484C683.747 219.391 682.982 218.391 681.961 217.484L683.086 216.352Z" fill="black"/>
<rect x="473.5" y="109.5" width="13" height="14" rx="6.5" fill="#E535AB" stroke="black" stroke-width="3"/>
<rect x="548.5" y="109.5" width="14" height="14" rx="7" fill="#E84EB6" stroke="black" stroke-width="3"/>
<rect x="478.5" y="141.5" width="13" height="14" rx="6.5" fill="#51DD4E" stroke="black" stroke-width="3"/>
<rect x="512.5" y="127.5" width="14" height="14" rx="7" fill="#51DD4E" stroke="black" stroke-width="3"/>
<rect x="504.5" y="83.5" width="73" height="73" rx="2.5" stroke="black" stroke-width="3"/>
<rect x="464.5" y="100.5" width="73" height="74" rx="2.5" stroke="black" stroke-width="3"/>
<line x1="465.443" y1="100.607" x2="505.443" y2="84.6073" stroke="black" stroke-width="3"/>
<line x1="536.646" y1="100.784" x2="576.435" y2="84.6104" stroke="black" stroke-width="3"/>
<line x1="463.848" y1="174.287" x2="505.636" y2="156.275" stroke="black" stroke-width="3"/>
<line x1="536.61" y1="174.011" x2="576.399" y2="156.626" stroke="black" stroke-width="3"/>
<rect x="542.5" y="149.5" width="14" height="14" rx="7" fill="#F262F5" stroke="black" stroke-width="3"/>
<rect x="493.5" y="126.5" width="14" height="14" rx="7" fill="#8B2DF5" stroke="black" stroke-width="3"/>
<rect x="506.5" y="151.5" width="14" height="14" rx="7" fill="#51DD4E" stroke="black" stroke-width="3"/>
<rect x="520.5" y="136.5" width="14" height="14" rx="7" fill="#FFFD54" stroke="black" stroke-width="3"/>
<rect x="492.5" y="292.5" width="13" height="14" rx="6.5" fill="#7DE77B" stroke="black" stroke-width="3"/>
<rect x="564.5" y="302.5" width="14" height="14" rx="7" fill="#7DE77B" stroke="black" stroke-width="3"/>
<rect x="523.5" y="266.5" width="73" height="73" rx="2.5" stroke="black" stroke-width="3"/>
<rect x="483.5" y="283.5" width="73" height="74" rx="2.5" stroke="black" stroke-width="3"/>
<line x1="484.443" y1="283.607" x2="524.443" y2="267.607" stroke="black" stroke-width="3"/>
<line x1="555.646" y1="283.784" x2="595.435" y2="267.61" stroke="black" stroke-width="3"/>
<line x1="482.848" y1="357.287" x2="524.636" y2="339.275" stroke="black" stroke-width="3"/>
<rect x="576.5" y="283.5" width="14" height="14" rx="7" fill="#51DD4E" stroke="black" stroke-width="3"/>
<line x1="555.61" y1="357.011" x2="595.399" y2="339.626" stroke="black" stroke-width="3"/>
<rect x="513.5" y="340.5" width="13" height="14" rx="6.5" fill="#51DD4E" stroke="black" stroke-width="3"/>
<rect x="533.5" y="333.5" width="14" height="14" rx="7" fill="#7DE77B" stroke="black" stroke-width="3"/>
<rect x="521.5" y="289.5" width="14" height="14" rx="7" fill="#7DE77B" stroke="black" stroke-width="3"/>
<rect x="538.5" y="306.5" width="14" height="14" rx="7" fill="#51DD4E" stroke="black" stroke-width="3"/>
<rect x="492.5" y="322.5" width="14" height="14" rx="7" fill="#7DE77B" stroke="black" stroke-width="3"/>
<rect x="621.5" y="289.5" width="13" height="14" rx="6.5" fill="#FFFD54" stroke="black" stroke-width="3"/>
<rect x="652.5" y="263.5" width="73" height="73" rx="2.5" stroke="black" stroke-width="3"/>
<rect x="612.5" y="280.5" width="73" height="74" rx="2.5" stroke="black" stroke-width="3"/>
<line x1="613.443" y1="280.607" x2="653.443" y2="264.607" stroke="black" stroke-width="3"/>
<line x1="684.646" y1="280.784" x2="724.435" y2="264.61" stroke="black" stroke-width="3"/>
<line x1="611.848" y1="354.287" x2="653.636" y2="336.275" stroke="black" stroke-width="3"/>
<rect x="705.5" y="280.5" width="14" height="14" rx="7" fill="#FFFD54" stroke="black" stroke-width="3"/>
<line x1="684.61" y1="354.011" x2="724.399" y2="336.626" stroke="black" stroke-width="3"/>
<rect x="651.5" y="330.5" width="13" height="14" rx="6.5" fill="#FFFD54" stroke="black" stroke-width="3"/>
<rect x="662.5" y="307.5" width="14" height="14" rx="7" fill="#FFFD54" stroke="black" stroke-width="3"/>
<rect x="621.5" y="325.5" width="14" height="14" rx="7" fill="#FFFD54" stroke="black" stroke-width="3"/>
<rect x="651.5" y="287.5" width="14" height="14" rx="7" fill="#FFFD54" stroke="black" stroke-width="3"/>
<rect x="689.5" y="329.5" width="14" height="14" rx="7" fill="#FFFD54" stroke="black" stroke-width="3"/>
<rect x="634.5" y="308.5" width="14" height="14" rx="7" fill="#FFFD54" stroke="black" stroke-width="3"/>
<rect x="655.5" y="83.5" width="40" height="40" rx="2.5" stroke="black" stroke-width="3"/>
<rect x="632.5" y="93.5" width="40" height="40" rx="2.5" stroke="black" stroke-width="3"/>
<line x1="633.37" y1="94.742" x2="657.37" y2="83.6386" stroke="black" stroke-width="3"/>
<line x1="671.658" y1="94.0887" x2="694.296" y2="84.8863" stroke="black" stroke-width="3"/>
<line x1="632.423" y1="132.615" x2="656.423" y2="122.615" stroke="black" stroke-width="3"/>
<line x1="671.438" y1="132.501" x2="693.438" y2="123.609" stroke="black" stroke-width="3"/>
<rect x="644.5" y="107.5" width="7" height="7" rx="3.5" fill="#FFFD54" stroke="black" stroke-width="3"/>
<rect x="653.5" y="139.5" width="40" height="40" rx="2.5" stroke="black" stroke-width="3"/>
<rect x="630.5" y="149.5" width="40" height="40" rx="2.5" stroke="black" stroke-width="3"/>
<line x1="631.37" y1="150.742" x2="655.37" y2="139.639" stroke="black" stroke-width="3"/>
<line x1="669.658" y1="150.089" x2="692.296" y2="140.886" stroke="black" stroke-width="3"/>
<line x1="630.423" y1="188.615" x2="654.423" y2="178.615" stroke="black" stroke-width="3"/>
<line x1="669.438" y1="188.501" x2="691.438" y2="179.609" stroke="black" stroke-width="3"/>
<rect x="657.5" y="162.5" width="7" height="7" rx="3.5" fill="#7DE77B" stroke="black" stroke-width="3"/>
<rect x="726.5" y="100.5" width="40" height="40" rx="2.5" stroke="black" stroke-width="3"/>
<rect x="703.5" y="110.5" width="40" height="40" rx="2.5" stroke="black" stroke-width="3"/>
<line x1="704.37" y1="111.742" x2="728.37" y2="100.639" stroke="black" stroke-width="3"/>
<line x1="742.658" y1="111.089" x2="765.296" y2="101.886" stroke="black" stroke-width="3"/>
<line x1="703.423" y1="149.615" x2="727.423" y2="139.615" stroke="black" stroke-width="3"/>
<line x1="742.438" y1="149.501" x2="764.438" y2="140.609" stroke="black" stroke-width="3"/>
<rect x="715.5" y="124.5" width="7" height="7" rx="3.5" fill="#FFFD54" stroke="black" stroke-width="3"/>
</svg>
