<svg width="838" height="447" viewBox="0 0 838 447" fill="none" xmlns="http://www.w3.org/2000/svg">
<rect width="838" height="447" fill="white"/>
<path d="M212.032 208.031C233.594 236.026 235.848 238.385 236.366 241.735C236.895 245.063 236.07 250.224 234.25 252.267C232.822 253.878 230.378 254.089 227.902 254.373C224.643 254.753 220.506 254.237 216.264 253.32C210.857 252.141 203.747 249.602 198.277 247.001C193.252 244.61 188.184 241.84 184.523 238.575C181.37 235.752 178.704 232.624 177.117 229.096C175.551 225.599 174.99 221.734 175.001 217.51C175.022 212.413 176.049 206.083 178.175 200.658C180.471 194.813 184.597 189.02 188.755 183.807C193.03 178.467 197.727 173.169 203.568 169.061C209.905 164.606 218.126 160.983 225.786 158.529C233.298 156.117 240.81 154.759 249.062 154.316C258.32 153.811 271.164 154.822 278.687 156.423C283.554 157.455 287.458 158.318 290.325 160.636C292.906 162.71 294.388 165.607 295.615 169.061C297.234 173.569 297.615 179.783 297.731 185.913C297.869 193.244 297.276 201.09 295.615 210.138C293.414 222.123 288.981 239.902 283.977 251.214C280.073 260.04 276.169 267.497 270.223 273.332C264.456 278.998 256.468 283.158 249.062 285.971C241.984 288.656 234.091 290.721 226.844 290.183C219.639 289.646 212.402 286.339 205.684 282.811C198.605 279.082 192.077 273.627 185.581 268.066C178.651 262.125 171.319 254.868 165.479 248.054C160.178 241.851 155.227 235.057 151.725 229.096C148.91 224.304 146.286 219.501 145.377 215.404C144.699 212.339 144.276 209.379 145.377 206.978C146.572 204.397 149.704 202.207 152.783 200.658C156.486 198.794 161.49 198.068 166.537 197.499C172.568 196.814 179.73 196.877 186.639 197.499C194.151 198.173 202.234 199.237 209.916 201.712C218.115 204.355 227.045 208.547 234.25 213.297C241.053 217.774 247.147 223.535 252.236 229.096C256.86 234.12 261.378 240.292 263.874 244.894C265.567 248.012 267.662 251.003 267.049 253.32C266.467 255.532 263.208 257.365 260.7 258.586C257.981 259.913 254.458 260.493 251.178 260.693C247.761 260.893 243.889 260.398 240.598 259.64C237.572 258.934 234.821 258.07 232.134 256.48C229.14 254.7 225.807 251.983 223.67 249.107C221.617 246.337 220.485 243.009 219.438 239.628C218.327 236.016 216.052 229.907 217.322 228.043C218.189 226.779 220.506 226.779 222.612 226.989C225.976 227.316 231.087 229.538 235.308 232.256C240.619 235.657 246.745 241.492 251.178 247.001C255.527 252.393 258.923 258.692 261.758 264.906C264.541 270.994 266.9 277.755 268.107 283.864C269.186 289.299 269.969 295.144 269.165 299.663C268.519 303.317 267.091 306.403 264.933 309.142C262.615 312.08 258.881 314.429 255.41 316.514C251.845 318.663 247.92 320.717 243.772 321.781C239.477 322.876 234.462 323.371 230.018 322.834C225.648 322.297 221.141 320.475 217.322 318.621C213.799 316.904 211.016 315.587 207.8 312.301C202.605 306.972 194.754 295.028 191.929 287.024C189.739 280.799 189.147 272.953 189.813 269.119C190.162 267.16 190.448 266.349 191.929 264.906C195.304 261.609 206.752 256.448 214.148 254.373C220.856 252.488 227.637 252.425 234.25 252.267C240.683 252.109 247.994 251.919 253.294 253.32C257.473 254.426 261.335 256.343 263.874 258.586C265.927 260.377 267.313 262.009 268.107 264.906C269.45 269.73 269.514 280.862 267.049 285.971C265.144 289.931 260.605 293.227 257.526 294.396C255.357 295.218 253.612 295.397 251.178 294.396C246.174 292.332 237.403 281.399 232.134 275.438C227.913 270.646 224.061 266.433 221.554 261.746C219.353 257.628 217.385 253.131 217.322 249.107C217.269 245.442 218.687 241.808 220.496 238.575C222.453 235.099 225.363 231.761 228.96 229.096C233.181 225.957 239.085 223.303 244.83 221.723C251.009 220.017 257.907 219.68 264.933 219.617C272.656 219.543 281.681 219.848 289.267 221.723C296.44 223.482 303.476 226.357 309.369 230.149C315.051 233.793 320.563 239.017 324.181 243.841C327.218 247.875 329.926 252.741 330.53 256.48C330.974 259.187 331.027 261.999 329.472 263.853C327.398 266.328 321.621 267.402 316.775 268.066C310.692 268.887 303.085 268.044 295.615 267.012C287.003 265.812 277.999 263.874 268.107 260.693C255.823 256.733 234.737 249.623 227.902 243.841C224.643 241.071 223.723 238.828 222.612 235.415C221.215 231.108 220.284 224.156 221.554 219.617C222.707 215.52 226.008 212.212 228.96 209.084C231.986 205.872 235.625 203.07 239.54 200.658C243.688 198.11 248.597 195.55 253.294 194.339C257.78 193.17 262.753 192.528 267.049 193.286C271.196 194.013 275.904 195.15 278.687 198.552C282.496 203.197 284.982 221.333 283.977 221.723C283.13 222.05 277.671 211.918 275.513 206.978C273.545 202.438 272.159 197.804 271.281 193.286C270.455 189.031 269.852 184.734 270.223 180.647C270.593 176.666 271.661 172.326 273.397 169.061C274.963 166.123 277.396 163.258 279.745 161.689C281.702 160.383 283.86 159.424 286.093 159.582C288.748 159.772 291.362 161.826 294.557 163.795C299.35 166.744 305.285 170.894 311.485 176.434C320.531 184.502 336.349 201.543 342.168 209.084C344.919 212.634 347.373 215.614 347.458 217.51C347.5 218.427 347.204 218.995 346.4 219.617C344.368 221.186 337.121 222.187 331.588 222.776C324.742 223.493 316.712 223.44 308.311 222.776C298.292 221.976 285.998 219.88 275.513 217.51C265.588 215.256 254.575 212.465 246.946 209.084C241.339 206.588 236.546 203.544 233.192 200.658C230.801 198.594 228.791 196.772 227.902 194.339C227.003 191.864 226.833 188.199 227.902 185.913C228.971 183.649 231.69 181.869 234.25 180.647C237.191 179.246 241.296 178.709 244.83 178.541C248.343 178.361 252.279 178.235 255.41 179.594C258.648 180.984 261.367 183.933 263.874 186.966C266.752 190.432 269.503 195.361 271.281 199.605C272.899 203.439 274.635 208.105 274.455 211.191C274.338 213.308 273.703 215.235 272.339 216.457C270.762 217.879 267.81 218.384 264.933 218.563C261.081 218.806 256.775 218.29 251.178 216.457C241.074 213.139 219.766 201.838 210.974 195.392C205.927 191.685 202.922 188.515 200.393 184.86C198.288 181.806 196.532 178.267 196.161 175.381C195.876 173.106 196.257 170.936 197.219 169.061C198.267 167.039 200.182 165.143 202.51 163.795C205.472 162.078 209.757 160.973 214.148 160.636C219.681 160.204 227.532 160.435 233.192 162.742C238.81 165.028 243.783 169.778 248.004 174.328C252.257 178.899 255.696 184.818 258.584 190.126C261.24 195.003 264.086 200.722 264.933 204.871C265.514 207.684 266.255 210.275 264.933 212.244C263.144 214.919 256.87 216.436 252.236 217.51C247.094 218.7 241.328 218.658 235.308 218.563C228.399 218.448 220.284 218.184 213.09 216.457C205.821 214.698 198.066 211.307 191.929 208.031C186.671 205.219 181.688 201.912 178.175 198.552C175.382 195.877 173.001 192.728 171.827 190.126C170.991 188.262 170.272 186.492 170.769 184.86C171.361 182.933 173.88 181.089 176.059 179.594C178.641 177.824 181.921 176.413 185.581 175.381C190.12 174.096 195.844 173.348 201.451 173.274C207.757 173.18 215.047 173.812 221.554 175.381C228.103 176.961 234.694 179.699 240.598 182.753C246.301 185.703 252.131 189.189 256.468 193.286C260.436 197.014 264.351 201.796 265.991 205.925C267.271 209.126 267.789 212.56 267.049 215.404C266.329 218.163 264.34 220.786 261.758 222.776C258.489 225.294 253.231 226.81 248.004 228.043C241.572 229.549 234.176 230.749 225.786 230.149C214.518 229.338 197.516 224.63 186.639 220.67C178.313 217.626 171.171 213.761 165.479 210.138C161.173 207.389 157.586 205.008 154.899 201.712C152.402 198.626 149.344 192.822 149.609 191.179C149.704 190.59 150.042 190.347 150.667 190.126C152.423 189.494 158.475 189.958 162.305 191.179C166.6 192.538 170.272 194.718 175.001 198.552C183.074 205.082 196.754 220.417 203.568 230.149C208.54 237.248 211.63 243.746 214.148 250.161C216.295 255.606 218.285 261.346 218.38 265.959C218.454 269.508 217.914 272.963 216.264 275.438C214.677 277.829 211.894 279.609 208.858 280.704C205.133 282.052 199.685 281.926 195.103 281.758C190.512 281.579 185.444 280.841 181.349 279.651C177.815 278.608 174.652 277.703 171.827 275.438C168.515 272.773 164.632 267.728 163.363 263.853C162.337 260.703 162.813 257.386 163.363 254.373C163.902 251.424 164.834 248.37 166.537 245.948C168.314 243.42 170.854 241.04 173.943 239.628C177.636 237.932 182.809 237.469 187.697 237.522C193.294 237.585 199.991 238.891 205.684 240.681C211.259 242.43 217.152 244.979 221.554 248.054C225.416 250.74 228.717 254.268 231.076 257.533C233.065 260.261 235.001 262.863 235.308 265.959C235.657 269.456 234.144 274.353 232.134 277.545C230.198 280.62 226.918 283 223.67 284.917C220.263 286.918 216.401 288.625 212.032 289.13C206.752 289.741 199.875 288.425 194.045 287.024C188.237 285.612 182.407 283.506 177.117 280.704C171.816 277.892 165.511 273.9 162.305 270.172C159.998 267.476 158.644 264.801 158.073 261.746C157.48 258.502 158.136 254.321 159.131 251.214C160.03 248.433 161.384 245.895 163.363 243.841C165.511 241.619 168.463 239.797 171.827 238.575C175.953 237.069 181.476 236.384 186.639 236.468C192.353 236.563 199.007 237.532 204.626 239.628C210.297 241.735 215.576 245.432 220.496 249.107C225.458 252.794 230.674 257.007 234.25 261.746C237.615 266.201 239.858 271.783 241.656 276.491C243.201 280.504 245.116 284.454 244.83 288.077C244.576 291.437 242.704 294.923 240.598 297.556C238.482 300.2 235.731 302.559 232.134 303.876C227.447 305.582 220.379 305.203 214.148 304.929C207.366 304.623 199.568 303.465 192.987 301.769C186.946 300.2 180.862 298.167 176.059 295.45C171.901 293.09 168.505 290.226 165.479 287.024C162.527 283.885 159.586 280.862 158.073 276.491C156.147 270.888 155.671 262.673 157.015 255.427C158.581 246.959 164.146 234.846 168.653 229.096C171.573 225.378 174.842 223.493 178.175 221.723C181.222 220.101 184.439 218.606 187.697 218.563C191.125 218.511 195.093 219.448 198.277 221.723C202.372 224.63 207.027 231.487 208.858 236.468C210.402 240.629 210.339 245.116 209.916 249.107C209.535 252.815 208.403 256.88 206.742 259.64C205.387 261.904 203.694 263.684 201.451 264.906C198.902 266.296 195.474 266.875 191.929 267.012C187.549 267.181 183.169 266.654 177.117 264.906C166.463 261.83 144.805 251.909 134.796 245.948C128.681 242.303 124.618 238.786 121.042 235.415C118.365 232.877 115.456 230.928 114.694 228.043C113.901 224.999 115.149 220.607 116.81 217.51C118.566 214.245 121.55 211.37 125.274 209.084C130.109 206.114 137.293 204.176 144.319 202.765C152.561 201.111 162.58 200.5 171.827 200.658C181.275 200.816 190.956 201.922 200.393 203.818C210.011 205.746 220.327 208.653 228.96 212.244C236.736 215.467 244.947 218.585 250.12 223.83C254.881 228.632 259.716 237.079 259.642 241.735C259.6 244.747 257.833 247.254 255.41 249.107C252.056 251.677 245.507 252.288 239.54 253.32C232.123 254.605 223.395 255.69 214.148 255.427C202.954 255.1 187.126 252.878 177.117 250.161C169.912 248.202 163.987 245.8 159.131 242.788C155.206 240.344 151.725 237.753 149.609 234.362C147.556 231.055 146.043 226.789 146.435 222.776C146.911 218.068 150.381 212.212 153.841 208.031C157.385 203.744 162.432 200.111 167.595 197.499C172.97 194.771 179.286 193.454 185.581 192.233C192.289 190.927 199.716 189.779 206.742 190.126C213.82 190.463 220.845 191.927 227.902 194.339C235.657 196.983 244.1 201.143 251.178 205.925C258.193 210.643 265.324 216.72 270.223 222.776C274.508 228.064 277.586 234.552 279.745 239.628C281.385 243.451 283.204 246.896 282.919 250.161C282.665 253.183 280.845 256.648 278.687 258.586C276.581 260.472 273.545 261.03 270.223 261.746C265.821 262.694 259.6 263.305 254.352 262.799C249.02 262.283 243.508 260.387 238.482 258.586C233.658 256.849 228.251 255.553 224.728 252.267C221.162 248.918 217.84 243.051 217.322 238.575C216.877 234.636 218.496 230.423 220.496 226.989C222.612 223.356 226.4 219.806 230.018 217.51C233.488 215.309 237.35 213.919 241.656 213.297C246.703 212.571 253.136 213.129 258.584 214.351C264.065 215.572 269.778 217.458 274.455 220.67C279.353 224.03 283.257 228.843 287.151 234.362C291.88 241.04 296.514 251.151 299.847 258.586C302.556 264.621 305.455 271.362 306.195 275.438C306.597 277.639 307.317 279.851 306.195 280.704C304.037 282.337 294.843 278.019 287.151 275.438C274.772 271.267 246.661 261.146 239.54 256.48C237.107 254.879 236.218 254.1 235.308 252.267C234.239 250.076 233.911 246.822 234.25 243.841C234.663 240.239 236.26 236.079 238.482 232.256C241.169 227.642 245.772 222.734 250.12 218.563C254.575 214.287 259.463 209.779 264.933 206.978C270.402 204.176 276.772 202.586 282.919 201.712C289.119 200.816 295.678 200.859 301.963 201.712C308.375 202.575 315.95 204.44 321.007 206.978C324.964 208.958 328.414 211.275 330.53 214.351C332.561 217.289 333.852 221.165 333.704 224.883C333.545 229.17 331.312 234.32 328.414 238.575C325.028 243.557 318.352 250.097 313.601 252.267C310.343 253.752 307.158 253.931 304.079 253.32C300.799 252.657 297.593 250.55 294.557 248.054C290.822 244.968 287.013 240.365 283.977 235.415C280.507 229.717 278.147 222.734 275.513 215.404C272.434 206.83 268.244 195.129 267.049 186.966C266.181 181.005 269.006 171.884 267.049 171.168C264.467 170.22 255.685 186.83 249.062 192.233C243.201 197.014 236.662 200.479 230.018 202.765C223.596 204.966 216.211 206.051 209.916 205.925C204.308 205.809 198.775 204.65 194.045 202.765C189.686 201.017 185.581 198.552 182.407 195.392C179.233 192.233 176.779 187.809 175.001 183.807C173.34 180.068 171.806 175.644 171.827 172.221C171.848 169.483 172.525 166.776 173.943 164.848C175.361 162.921 177.625 161.331 180.291 160.636C183.878 159.698 189.189 160.288 194.045 161.689C200.288 163.479 207.398 167.892 214.148 172.221C221.839 177.14 229.5 183.449 237.424 190.126C246.375 197.657 258.838 208.8 264.933 215.404C268.392 219.153 272.878 223.324 272.339 224.883C272.021 225.81 269.937 225.852 268.107 225.936C264.848 226.084 259.568 225.336 254.352 223.83C246.84 221.649 237.943 217.142 227.902 212.244C214.01 205.461 192.786 194.381 179.233 185.913C168.843 179.415 160.178 173.611 152.783 166.955C146.445 161.236 140.309 154.306 136.912 149.05C134.68 145.585 132.067 142.341 132.68 139.571C133.326 136.685 137.706 133.336 141.145 132.198C144.964 130.934 150.011 132.261 154.899 133.251C160.802 134.431 167.415 136.738 173.943 139.571C181.455 142.825 188.057 146.754 197.219 152.21C211.228 160.541 248.882 176.318 249.062 185.913C249.2 192.707 231.288 197.425 223.67 203.818C216.592 209.769 207.027 218.922 204.626 222.776C203.79 224.135 203.113 224.535 203.568 225.936C205.684 232.371 260.817 255.848 261.758 267.012C262.309 273.479 248.322 284.823 244.83 283.864C241.857 283.043 241.476 272.573 240.598 267.012C239.762 261.693 239.424 256.712 239.54 251.214C239.678 245.179 240.439 238.522 241.656 232.256C242.894 225.883 244.142 219.396 246.946 213.297C249.972 206.725 254.828 199.742 259.642 194.339C264.086 189.347 269.471 185.323 274.455 181.7C279.004 178.404 284.421 175.033 288.209 173.274C290.653 172.137 293.15 170.515 294.557 171.168C295.869 171.768 296.155 174.149 296.673 176.434C297.541 180.236 298.08 186.987 297.731 192.233C297.382 197.52 296.303 202.965 294.557 208.031C292.79 213.15 290.759 218.511 287.151 222.776C283.215 227.411 276.391 231.908 271.281 234.362C267.292 236.279 264.298 237.753 259.642 237.522C252.374 237.153 238.588 231.402 232.134 226.989C227.648 223.914 224.738 220.217 222.612 216.457C220.739 213.139 219.808 209.548 219.438 205.925C219.067 202.186 219.184 197.73 220.496 194.339C221.744 191.106 224.061 188.146 226.844 185.913C229.912 183.459 233.679 181.679 238.482 180.647C245.391 179.151 256.997 178.972 264.933 180.647C271.979 182.132 278.285 185.882 283.977 189.073C289.087 191.927 294.187 194.592 297.731 198.552C301.17 202.375 303.762 207.62 305.137 212.244C306.386 216.415 306.893 220.596 306.195 224.883C305.412 229.707 302.989 235.426 299.847 239.628C296.673 243.873 292.758 246.601 287.151 250.161C278.465 255.669 262.467 263.305 251.178 267.012C241.889 270.067 229.965 273.858 224.728 272.278C221.977 271.446 220.676 269.35 219.438 267.012C217.893 264.074 217.48 259.766 217.322 255.427C217.131 249.887 217.671 242.451 219.438 236.468C221.205 230.518 224.336 224.925 227.902 219.617C231.658 214.014 236.8 208.621 241.656 203.818C246.343 199.184 251.041 194.676 256.468 191.179C261.959 187.64 267.98 184.512 274.455 182.753C281.321 180.879 291.055 180.226 296.673 180.647C300.196 180.91 302.831 181.311 305.137 182.753C307.391 184.154 309.031 186.682 310.427 189.073C311.887 191.569 312.977 193.686 313.601 197.499C314.807 204.756 315.358 220.512 312.543 230.149C309.993 238.891 303.254 248.939 298.789 253.32C296.282 255.774 294.747 256.564 291.383 257.533C285.585 259.197 272.455 260.219 265.991 258.586C261.494 257.438 258.5 255.079 255.41 252.267C252.078 249.223 249.401 244.831 246.946 240.681C244.439 236.416 242.185 231.813 240.598 226.989C238.969 221.997 237.424 216.457 237.424 211.191C237.424 205.925 238.715 200.416 240.598 195.392C242.545 190.221 245.761 184.955 249.062 180.647C252.162 176.603 255.707 172.937 259.642 170.115C263.483 167.355 268.234 165.417 272.339 163.795C275.968 162.363 279.565 160.909 282.919 160.636C285.871 160.383 288.579 160.509 291.383 161.689C294.927 163.174 298.577 166.597 301.963 170.115C306.047 174.349 310.226 180.415 313.601 185.913C316.913 191.306 319.886 197.351 322.065 202.765C323.97 207.483 325.716 212.55 326.297 216.457C326.721 219.248 327.641 221.976 326.297 223.83C324.499 226.315 318.331 227.274 313.601 228.043C307.962 228.948 301.254 228.759 294.557 228.043C286.908 227.221 278.285 225.452 270.223 222.776C261.695 219.943 252.533 215.467 244.83 211.191C237.858 207.315 231.309 203.924 225.786 198.552C219.924 192.843 213.904 183.691 210.974 177.487C208.974 173.243 207.45 169.398 207.8 165.902C208.106 162.805 209.926 159.856 212.032 157.476C214.359 154.853 217.745 153.052 221.554 151.156C226.484 148.702 233.784 146.448 239.54 144.837C244.671 143.394 248.576 142.172 254.352 141.677C262.287 140.982 275.227 141.161 282.919 142.731C288.452 143.858 292.991 145.606 296.673 147.997C299.784 150.008 302.672 152.399 304.079 155.369C305.507 158.361 305.677 162.552 305.137 165.902C304.608 169.219 302.958 172.611 300.905 175.381C298.778 178.256 295.911 180.868 292.441 182.753C288.389 184.944 283.12 185.934 277.629 186.966C271.027 188.209 262.986 189.041 255.41 189.073C247.486 189.104 240.778 189.02 231.076 186.966C215.682 183.701 187.941 173.411 172.885 166.955C162.844 162.647 153.142 158.076 148.551 154.316C146.276 152.441 145.017 151.02 144.319 149.05C143.652 147.144 143.705 144.742 144.319 142.731C144.996 140.519 146.837 138.307 148.551 136.411C150.339 134.431 152.233 132.493 154.899 131.145C158.263 129.449 163.098 128.385 167.595 127.985C172.557 127.543 177.72 127.754 183.465 129.039C190.829 130.671 201.399 134.779 207.8 138.518C212.666 141.34 216.126 144.226 219.438 147.997C222.876 151.904 225.765 156.981 227.902 161.689C229.923 166.123 231.298 169.83 232.134 175.381C233.361 183.47 233.255 197.467 232.134 205.925C231.319 212.107 229.679 217.068 227.902 221.723C226.4 225.673 225.162 229.601 222.612 232.256C220.168 234.794 216.549 236.626 213.09 237.522C209.514 238.438 205.366 238.154 201.451 237.522C197.262 236.837 192.628 235.405 188.755 233.309C184.862 231.202 181.349 228.043 178.175 224.883C175.001 221.723 171.457 217.974 169.711 214.351C168.23 211.275 166.791 208.263 167.595 204.871C168.801 199.784 176.948 191.537 181.349 188.02C184.248 185.703 186.258 185.018 189.813 183.807C195.188 181.964 203.8 180.299 210.974 179.594C218.253 178.878 225.701 178.477 233.192 179.594C241.212 180.773 249.708 182.88 257.526 186.966C266.361 191.569 277.629 200.49 282.919 206.978C286.431 211.265 288.294 215.477 289.267 219.617C290.113 223.187 290.611 226.726 289.267 230.149C287.563 234.509 283.342 238.543 277.629 242.788C267.842 250.066 237.879 267.655 232.134 264.906C229.616 263.695 229.626 258.597 230.018 255.427C230.452 251.93 232.853 248.107 235.308 244.894C238.006 241.366 241.688 237.68 245.888 235.415C250.406 232.982 256.722 231.855 261.758 231.202C266.192 230.623 270.603 230.391 274.455 231.202C277.946 231.94 281.797 233.677 283.977 235.415C285.543 236.648 286.315 237.932 287.151 239.628C288.177 241.661 288.886 244.294 289.267 247.001C289.711 250.171 289.881 253.32 289.267 257.533C288.315 264.2 285.648 277.829 281.861 282.811C279.544 285.865 276.719 287.719 273.397 288.077C269.239 288.519 263.261 285.855 258.584 282.811C252.913 279.103 247.126 271.583 242.714 265.959C238.874 261.051 233.922 255.585 233.192 251.214C232.684 248.138 233.784 245.474 235.308 242.788C237.212 239.439 240.916 235.721 244.83 233.309C249.2 230.623 254.458 229.159 260.7 228.043C269.175 226.526 282.443 225.926 291.383 226.989C298.567 227.832 304.259 229.591 310.427 232.256C316.987 235.089 323.525 239.333 329.472 243.841C335.534 248.433 341.988 254.258 346.4 259.64C350.082 264.126 353.404 269.171 354.864 273.332C355.933 276.354 356.768 279.767 355.922 281.758C355.255 283.316 353.594 284.285 351.69 284.917C348.886 285.844 344.178 285.581 340.052 284.917C335.111 284.117 329.683 281.989 324.181 279.651C317.77 276.923 310.438 273.153 304.079 269.119C297.742 265.085 291.425 260.577 286.093 255.427C280.866 250.371 275.343 244.431 272.339 238.575C269.736 233.488 268.043 228.19 268.107 222.776C268.181 216.984 270.762 210.117 273.397 204.871C275.83 200.048 278.898 196.604 282.919 192.233C288.177 186.535 296.959 178.267 303.021 174.328C307.2 171.61 311.147 169.82 314.659 169.061C317.336 168.482 320.108 168.124 322.065 169.061C323.949 169.957 325.261 172.168 326.297 174.328C327.546 176.908 328.054 180.542 328.414 183.807C328.794 187.198 329.609 191.464 328.414 194.339C327.313 196.983 325.06 199.321 322.065 200.658C317.833 202.554 310.237 202.565 304.079 201.712C297.223 200.753 290.716 198.078 282.919 194.339C272.032 189.115 253.971 177.582 245.888 171.168C241.402 167.608 238.493 165.217 236.366 161.689C234.451 158.487 233.086 154.453 233.192 151.156C233.298 148.176 234.409 145.511 236.366 142.731C239.149 138.802 246.195 132.957 250.12 131.145C252.469 130.06 254.776 129.723 256.468 130.092C257.78 130.366 258.648 131.071 259.642 132.198C261.208 133.968 262.764 136.854 263.874 140.624C265.821 147.186 267.884 162.447 267.049 169.061C266.583 172.769 265.398 176.445 263.874 177.487C262.975 178.109 262.139 177.982 260.7 177.487C256.109 175.897 240.418 162.816 235.308 157.476C232.6 154.643 231.044 152.462 230.018 150.103C229.235 148.281 228.664 146.533 228.96 144.837C229.277 143.015 230.568 140.456 232.134 139.571C233.732 138.676 236.006 138.886 238.482 139.571C242.714 140.74 249.824 145.353 254.352 149.05C258.532 152.452 261.843 156.254 264.933 160.636C268.244 165.312 271.281 170.947 273.397 176.434C275.492 181.837 277.237 187.461 277.629 193.286C278.041 199.384 276.899 205.998 275.513 212.244C274.106 218.637 271.757 224.63 269.165 231.202C266.244 238.607 262.806 247.359 258.584 254.373C254.617 260.967 250.279 267.191 244.83 272.278C239.36 277.387 232.134 281.673 225.786 284.917C220.147 287.793 212.254 293.501 208.858 291.237C204.149 288.088 206.784 265.927 207.8 256.48C208.53 249.792 209.926 241.893 212.032 239.628C212.963 238.628 214.031 238.291 215.206 238.575C217.301 239.059 220.327 242.988 222.612 245.948C225.331 249.455 228.24 254.342 230.018 258.586C231.637 262.42 232.494 266.107 233.192 270.172C233.954 274.511 234.282 279.493 234.25 283.864C234.229 287.887 234.504 292.048 233.192 295.45C231.944 298.673 230.007 301.811 226.844 303.876C222.675 306.593 215.121 307.825 208.858 308.088C202.118 308.362 195.706 306.73 187.697 304.929C176.779 302.464 153.238 298.209 149.609 293.343C148.17 291.395 149.207 289.236 149.609 287.024C150.095 284.37 151.079 281.399 152.783 278.598C154.93 275.08 158.485 271.352 162.305 268.066C166.727 264.253 172.208 260.282 178.175 257.533C184.756 254.5 192.755 252.615 200.393 251.214C208.255 249.771 217.015 249.034 224.728 249.107C231.753 249.17 239.075 249.328 244.83 251.214C249.75 252.815 253.919 255.637 257.526 258.586C260.891 261.325 263.726 264.463 265.991 268.066C268.35 271.805 269.873 276.344 271.281 280.704C272.709 285.117 273.756 289.636 274.455 294.396C275.206 299.441 276.444 305.224 275.513 310.195C274.613 315.04 272.571 321.296 269.165 323.887C266.033 326.267 258.669 327.942 256.468 325.993C253.802 323.613 256.289 313.513 257.526 307.035C258.902 299.852 261.43 291.131 264.933 284.917C268.011 279.462 272.032 275.07 276.571 271.225C281.184 267.328 286.886 264.032 292.441 261.746C297.837 259.524 304.217 258.165 309.369 257.533C313.58 257.017 318.426 256.754 321.007 257.533C322.489 257.976 323.6 258.334 324.181 259.64C325.345 262.21 323.853 270.204 322.065 274.385C320.468 278.134 317.41 281.168 314.659 283.864C312.088 286.381 309.369 288.951 306.195 290.183C303.021 291.416 299.149 291.237 295.615 291.237C292.092 291.237 288.505 291.026 285.035 290.183C281.448 289.309 277.502 287.961 274.455 285.971C271.545 284.054 269.249 281.515 267.049 278.598C264.583 275.312 262.129 270.772 260.7 267.012C259.484 263.779 258.5 260.482 258.584 257.533C258.669 254.911 259.219 252.309 260.7 250.161C262.446 247.633 266.075 244.863 269.165 243.841C272.095 242.862 275.555 243.336 278.687 243.841C281.903 244.357 285.141 245.505 288.209 247.001C291.499 248.602 295.224 250.75 297.731 253.32C300.08 255.722 302.005 259.176 303.021 261.746C303.772 263.631 304.439 265.422 304.079 267.012C303.73 268.582 302.926 270.056 300.905 271.225C295.795 274.174 275.851 274.89 267.049 275.438C261.462 275.786 257.146 275.975 253.294 275.438C250.417 275.038 248.459 275.017 245.888 273.332C241.582 270.499 235.403 261.925 232.134 256.48C229.542 252.151 225.564 246.242 226.844 243.841C227.987 241.714 234.335 241.071 237.424 241.735C240.27 242.335 242.64 244.747 244.83 247.001C247.295 249.529 249.634 252.33 251.178 256.48C253.506 262.683 255.029 276.523 254.352 281.758C254.035 284.222 253.474 285.791 252.236 287.024C251.009 288.246 249.105 288.614 246.946 289.13C243.867 289.867 239.604 290.236 235.308 290.183C229.965 290.11 223.427 289.383 217.322 288.077C210.741 286.666 203.377 284.517 197.219 281.758C191.453 279.167 186.036 276.344 181.349 272.278C176.451 268.013 171.277 261.862 168.653 256.48C166.473 251.993 165.987 247.19 165.479 242.788C165.024 238.786 164.77 234.899 165.479 231.202C166.188 227.537 167.817 223.956 169.711 220.67C171.668 217.279 173.996 214.319 177.117 211.191C181.032 207.283 186.322 202.986 191.929 199.605C198.161 195.845 205.599 192.717 213.09 190.126C221.057 187.377 230.145 184.828 238.482 183.807C246.354 182.838 254.511 182.448 261.758 183.807C268.551 185.071 275.322 187.956 280.803 191.179C285.733 194.076 290.283 197.657 293.499 201.712C296.483 205.461 299.181 210.464 299.847 214.351C300.365 217.352 300.038 220.249 298.789 222.776C297.414 225.578 294.472 228.401 291.383 230.149C287.934 232.098 283.437 232.972 278.687 233.309C272.783 233.72 265.514 232.74 258.584 231.202C250.766 229.464 241.984 226.02 234.25 222.776C226.844 219.659 219.448 216.288 213.09 212.244C207.207 208.495 201.832 203.913 197.219 199.605C193.167 195.814 189.327 192.212 186.639 188.02C184.142 184.091 182.407 179.762 181.349 175.381C180.291 170.989 179.582 165.301 180.291 161.689C180.81 159.087 181.878 156.949 183.465 155.369C185.052 153.79 187.179 153.031 189.813 152.21C193.654 151.02 199.304 150.335 204.626 150.103C210.804 149.829 217.47 150.303 224.728 151.156C233.446 152.178 251.274 154 253.294 156.423C253.844 157.076 253.675 157.676 253.294 158.529C252.321 160.72 246.576 165.702 242.714 168.008C239.127 170.157 235.17 171.178 231.076 172.221C226.738 173.327 222.326 174.465 217.322 174.328C211.249 174.159 203.821 172.168 197.219 170.115C190.416 167.998 183.455 164.775 177.117 161.689C171.15 158.771 160.157 153.768 160.189 152.21C160.21 151.662 161.416 151.083 162.305 151.156C164.061 151.293 166.96 153.716 169.711 156.423C174.747 161.352 184.047 173.432 187.697 180.647C190.226 185.618 191.369 190.611 191.929 194.339C192.31 196.814 192.659 198.057 191.929 200.658C190.512 205.777 183.285 216.952 179.233 221.723C176.694 224.714 172.483 225.694 171.827 228.043C171.287 229.981 172.779 233.193 173.943 234.362C174.768 235.184 175.594 235.32 177.117 235.415C180.915 235.626 189.284 232.224 197.219 231.202C208.487 229.738 234.292 232.529 238.482 229.096C239.847 227.979 239.752 226.895 239.54 224.883C238.937 219.069 229.521 201.522 223.67 192.233C218.771 184.439 213.471 178.151 207.8 172.221C202.488 166.66 196.987 161.836 190.871 157.476C184.661 153.042 177.054 147.828 170.769 145.89C165.934 144.395 161.575 144.489 157.015 144.837C152.402 145.174 146.921 145.975 143.261 147.997C140.108 149.735 136.627 153.526 135.854 155.369C135.516 156.191 135.389 157.065 135.854 157.476C136.796 158.297 140.499 157.423 144.319 156.423C153.28 154.063 175.096 143.205 187.697 138.518C197.219 134.979 204.742 132.219 213.09 130.092C220.951 128.091 229.087 126.742 236.366 125.879C242.725 125.12 250.459 124.457 254.352 124.826C256.278 125.005 258.521 125.278 258.584 125.879C258.68 126.753 254.12 128.607 250.12 130.092C241.646 133.241 219.903 137.085 208.858 140.624C201.208 143.068 195.389 145.111 189.813 147.997C184.999 150.482 180.873 153.189 177.117 156.423C173.499 159.54 170.102 163.153 167.595 166.955C165.225 170.557 163.691 174.359 162.305 178.541C160.802 183.08 159.617 188.757 159.131 193.286C158.729 197.067 158.655 200.258 159.131 203.818C159.649 207.62 160.929 212.592 162.305 215.404C163.225 217.268 163.998 218.458 165.479 219.617C167.309 221.039 170.208 222.071 172.885 222.776C175.816 223.545 178.863 224.093 182.407 223.83C187.062 223.482 193.887 221.965 198.277 219.617C202.15 217.542 204.53 214.93 207.8 211.191C212.54 205.767 219.618 194.571 222.612 189.073C224.262 186.05 225.342 183.849 225.786 181.7C226.114 180.131 226.241 178.583 225.786 177.487C225.405 176.56 224.664 175.613 223.67 175.381C222.189 175.033 219.142 176.065 217.322 177.487C215.11 179.225 213.83 181.985 212.032 185.913C208.614 193.412 203.515 210.022 201.451 220.67C199.769 229.37 199.526 236.721 199.335 244.894C199.145 253.225 199.388 261.114 200.393 270.172C201.589 280.873 205.366 304.823 206.742 304.929C207.165 304.96 207.726 303.223 207.8 301.769C207.979 298.673 206.403 293.143 204.626 287.024C201.526 276.323 192.659 256.248 188.755 243.841C185.888 234.678 183.486 227.927 182.407 219.617C181.307 211.086 181.201 201.491 182.407 193.286C183.518 185.787 185.391 178.551 188.755 172.221C192.109 165.923 197.706 159.351 202.51 155.369C206.255 152.262 209.704 150.598 214.148 149.05C219.364 147.228 225.659 146.448 232.134 145.89C239.614 145.237 247.602 145.111 256.468 145.89C267.334 146.838 282.633 149.376 292.441 152.21C299.604 154.274 306.322 157.17 310.427 159.582C312.85 161.004 315.008 162.31 315.717 163.795C316.215 164.806 316.162 165.775 315.717 166.955C314.956 169.019 312.088 171.737 309.369 174.328C305.592 177.93 300.662 182.058 294.557 185.913C286.177 191.2 270.921 198.626 262.816 201.712C258.098 203.502 254.903 204.376 251.178 204.871C247.877 205.314 244.481 205.324 241.656 204.871C239.297 204.482 237.075 203.987 235.308 202.765C233.541 201.533 231.954 199.363 231.076 197.499C230.304 195.835 229.912 194.381 230.018 192.233C230.198 188.715 231.52 183.322 234.25 178.541C238.196 171.631 247.856 161.489 254.352 156.423C259.05 152.757 263.06 150.788 268.107 149.05C273.566 147.165 279.131 146.491 286.093 145.89C295.583 145.058 309.634 145.006 319.949 145.89C328.773 146.649 341.872 145.659 344.284 150.103C346.685 154.495 338.634 164.912 334.762 172.221C330.625 180.026 319.949 195.392 319.949 195.392" stroke="black" stroke-width="3.36901" stroke-linecap="round"/>
<rect x="570.5" y="78.5" width="18" height="18" rx="9" fill="#51DD4E" stroke="black" stroke-width="5"/>
<rect x="603.5" y="130.5" width="18" height="18" rx="9" fill="#51DD4E" stroke="black" stroke-width="5"/>
<rect x="631.5" y="145.5" width="18" height="18" rx="9" fill="#51DD4E" stroke="black" stroke-width="5"/>
<rect x="669.5" y="90.5" width="18" height="18" rx="9" fill="#51DD4E" stroke="black" stroke-width="5"/>
<rect x="634.5" y="113.5" width="18" height="18" rx="9" fill="#51DD4E" stroke="black" stroke-width="5"/>
<rect x="666.5" y="124.5" width="18" height="18" rx="9" fill="#51DD4E" stroke="black" stroke-width="5"/>
<rect x="555.5" y="99.5" width="18" height="18" rx="9" fill="#51DD4E" stroke="black" stroke-width="5"/>
<rect x="611.5" y="89.5" width="18" height="18" rx="9" fill="#51DD4E" stroke="black" stroke-width="5"/>
<rect x="566.5" y="122.5" width="18" height="18" rx="9" fill="#51DD4E" stroke="black" stroke-width="5"/>
<line x1="586.328" y1="93.3027" x2="607.328" y2="133.303" stroke="black" stroke-width="3"/>
<line x1="575.799" y1="108.514" x2="612.799" y2="103.514" stroke="black" stroke-width="3"/>
<line x1="584.073" y1="125.821" x2="612.073" y2="103.821" stroke="black" stroke-width="3"/>
<line x1="642.865" y1="145.019" x2="674.865" y2="108.019" stroke="black" stroke-width="3"/>
<line x1="621.409" y1="132.621" x2="635.409" y2="126.621" stroke="black" stroke-width="3"/>
<line x1="582.125" y1="136.505" x2="606.125" y2="138.505" stroke="black" stroke-width="3"/>
<line x1="626.061" y1="103.939" x2="637.061" y2="114.939" stroke="black" stroke-width="3"/>
<line x1="678.496" y1="109.107" x2="677.496" y2="123.107" stroke="black" stroke-width="3"/>
<line x1="622.416" y1="108.496" x2="615.416" y2="128.496" stroke="black" stroke-width="3"/>
<line x1="648.024" y1="157.861" x2="669.024" y2="139.861" stroke="black" stroke-width="3"/>
<line x1="620.743" y1="143.522" x2="666.743" y2="135.522" stroke="black" stroke-width="3"/>
<path d="M476.768 241.768C477.744 240.791 477.744 239.209 476.768 238.232L460.858 222.322C459.882 221.346 458.299 221.346 457.322 222.322C456.346 223.299 456.346 224.882 457.322 225.858L471.464 240L457.322 254.142C456.346 255.118 456.346 256.701 457.322 257.678C458.299 258.654 459.882 258.654 460.858 257.678L476.768 241.768ZM381 242.5H475V237.5H381V242.5Z" fill="black"/>
<path d="M545.414 56.3906V65H543.445V56.3906H540.648V54.7891H548.211V56.3906H545.414ZM554.586 54.8906C554.586 55.0625 554.555 55.224 554.492 55.375C554.43 55.526 554.341 55.6589 554.227 55.7734C554.117 55.8828 553.987 55.9714 553.836 56.0391C553.685 56.1016 553.521 56.1328 553.344 56.1328C553.167 56.1328 553 56.1016 552.844 56.0391C552.693 55.9714 552.56 55.8828 552.445 55.7734C552.336 55.6589 552.25 55.526 552.188 55.375C552.125 55.224 552.094 55.0625 552.094 54.8906C552.094 54.7188 552.125 54.5573 552.188 54.4062C552.25 54.2552 552.336 54.1224 552.445 54.0078C552.56 53.8932 552.693 53.8047 552.844 53.7422C553 53.6745 553.167 53.6406 553.344 53.6406C553.521 53.6406 553.685 53.6745 553.836 53.7422C553.987 53.8047 554.117 53.8932 554.227 54.0078C554.341 54.1224 554.43 54.2552 554.492 54.4062C554.555 54.5573 554.586 54.7188 554.586 54.8906ZM552.477 58.5469H550.234V57.0625H554.43V63.5156H556.719V65H549.961V63.5156H552.477V58.5469ZM564.664 58.4531C564.81 58.6354 564.911 58.8281 564.969 59.0312C565.031 59.2292 565.062 59.4323 565.062 59.6406C565.062 60.0833 564.984 60.474 564.828 60.8125C564.677 61.151 564.461 61.4349 564.18 61.6641C563.904 61.8932 563.57 62.0677 563.18 62.1875C562.794 62.3021 562.367 62.3594 561.898 62.3594C561.622 62.3594 561.367 62.3333 561.133 62.2812C560.898 62.224 560.721 62.1589 560.602 62.0859C560.513 62.1745 560.438 62.2734 560.375 62.3828C560.312 62.487 560.281 62.6068 560.281 62.7422C560.281 62.8255 560.302 62.9089 560.344 62.9922C560.385 63.0755 560.445 63.151 560.523 63.2188C560.607 63.2812 560.703 63.3333 560.812 63.375C560.927 63.4167 561.055 63.4401 561.195 63.4453L563.078 63.5156C563.5 63.526 563.88 63.5807 564.219 63.6797C564.562 63.7734 564.857 63.9089 565.102 64.0859C565.346 64.263 565.534 64.4792 565.664 64.7344C565.799 64.9844 565.867 65.2708 565.867 65.5938C565.867 65.9635 565.784 66.3125 565.617 66.6406C565.451 66.9688 565.198 67.2526 564.859 67.4922C564.526 67.737 564.109 67.9297 563.609 68.0703C563.109 68.2109 562.529 68.2812 561.867 68.2812C561.227 68.2812 560.674 68.2292 560.211 68.125C559.753 68.026 559.375 67.8854 559.078 67.7031C558.786 67.5208 558.57 67.3021 558.43 67.0469C558.289 66.7969 558.219 66.5208 558.219 66.2188C558.219 66.0365 558.242 65.8672 558.289 65.7109C558.336 65.5547 558.406 65.4036 558.5 65.2578C558.594 65.1172 558.711 64.9792 558.852 64.8438C558.992 64.7083 559.159 64.5729 559.352 64.4375C559.096 64.2917 558.901 64.1042 558.766 63.875C558.635 63.6458 558.57 63.401 558.57 63.1406C558.57 62.9635 558.594 62.7995 558.641 62.6484C558.688 62.4922 558.747 62.3438 558.82 62.2031C558.898 62.0625 558.987 61.9271 559.086 61.7969C559.185 61.6667 559.289 61.5391 559.398 61.4141C559.206 61.2214 559.044 60.9896 558.914 60.7188C558.789 60.4427 558.727 60.099 558.727 59.6875C558.727 59.2448 558.805 58.8516 558.961 58.5078C559.122 58.1589 559.344 57.8672 559.625 57.6328C559.906 57.3932 560.24 57.2135 560.625 57.0938C561.016 56.9688 561.44 56.9062 561.898 56.9062C562.133 56.9062 562.357 56.9193 562.57 56.9453C562.789 56.9661 562.987 57.0052 563.164 57.0625H565.914V58.4531H564.664ZM560.172 66.0547C560.172 66.362 560.326 66.5885 560.633 66.7344C560.945 66.8802 561.383 66.9531 561.945 66.9531C562.305 66.9531 562.607 66.9193 562.852 66.8516C563.102 66.7839 563.305 66.6953 563.461 66.5859C563.617 66.4766 563.729 66.349 563.797 66.2031C563.865 66.0573 563.898 65.9062 563.898 65.75C563.898 65.6094 563.865 65.4896 563.797 65.3906C563.734 65.2969 563.643 65.2161 563.523 65.1484C563.409 65.0859 563.271 65.0365 563.109 65C562.953 64.9688 562.779 64.9479 562.586 64.9375L560.906 64.9062C560.755 65.0104 560.63 65.1094 560.531 65.2031C560.438 65.2969 560.362 65.388 560.305 65.4766C560.253 65.5703 560.216 65.6641 560.195 65.7578C560.18 65.8516 560.172 65.9505 560.172 66.0547ZM560.492 59.6875C560.492 60.1094 560.615 60.4453 560.859 60.6953C561.109 60.9401 561.456 61.0625 561.898 61.0625C562.133 61.0625 562.336 61.0234 562.508 60.9453C562.685 60.8672 562.831 60.763 562.945 60.6328C563.06 60.5026 563.146 60.3516 563.203 60.1797C563.26 60.0078 563.289 59.8281 563.289 59.6406C563.289 59.1979 563.164 58.8542 562.914 58.6094C562.669 58.3594 562.326 58.2344 561.883 58.2344C561.648 58.2344 561.443 58.2734 561.266 58.3516C561.094 58.4297 560.951 58.5365 560.836 58.6719C560.721 58.8021 560.635 58.9557 560.578 59.1328C560.521 59.3099 560.492 59.4948 560.492 59.6875ZM572.242 65V59.8281C572.242 58.9583 571.919 58.5234 571.273 58.5234C570.951 58.5234 570.641 58.6536 570.344 58.9141C570.052 59.1745 569.742 59.5286 569.414 59.9766V65H567.508V53.9609H569.414V56.6797L569.32 58.1172C569.482 57.9245 569.646 57.7526 569.812 57.6016C569.979 57.4453 570.159 57.3151 570.352 57.2109C570.544 57.1068 570.753 57.0286 570.977 56.9766C571.201 56.9193 571.448 56.8906 571.719 56.8906C572.125 56.8906 572.479 56.9583 572.781 57.0938C573.083 57.224 573.336 57.4115 573.539 57.6562C573.742 57.8958 573.893 58.1875 573.992 58.5312C574.096 58.8698 574.148 59.25 574.148 59.6719V65H572.242ZM582.852 64.9219C582.508 65 582.161 65.0625 581.812 65.1094C581.464 65.1562 581.133 65.1797 580.82 65.1797C580.299 65.1797 579.849 65.125 579.469 65.0156C579.094 64.9062 578.781 64.7396 578.531 64.5156C578.286 64.2917 578.104 64.0078 577.984 63.6641C577.87 63.3151 577.812 62.901 577.812 62.4219V58.5469H575.68V57.0625H577.812V55.0312L579.766 54.5234V57.0625H582.852V58.5469H579.766V62.2812C579.766 62.7344 579.87 63.0781 580.078 63.3125C580.286 63.5417 580.635 63.6562 581.125 63.6562C581.438 63.6562 581.742 63.6302 582.039 63.5781C582.336 63.526 582.607 63.4661 582.852 63.3984V64.9219ZM600.32 64.6953C599.945 64.8464 599.557 64.9583 599.156 65.0312C598.755 65.1042 598.336 65.1406 597.898 65.1406C597.268 65.1406 596.703 65.0547 596.203 64.8828C595.703 64.7109 595.279 64.4557 594.93 64.1172C594.581 63.7786 594.312 63.3594 594.125 62.8594C593.943 62.3594 593.852 61.7812 593.852 61.125C593.852 60.4896 593.951 59.9141 594.148 59.3984C594.352 58.8828 594.635 58.4427 595 58.0781C595.365 57.7135 595.802 57.4323 596.312 57.2344C596.828 57.0365 597.401 56.9375 598.031 56.9375C598.547 56.9375 598.979 56.9661 599.328 57.0234C599.682 57.0755 600 57.1432 600.281 57.2266V59.0781C599.958 58.9167 599.607 58.7917 599.227 58.7031C598.852 58.6146 598.495 58.5703 598.156 58.5703C597.802 58.5703 597.484 58.6302 597.203 58.75C596.922 58.8698 596.685 59.0365 596.492 59.25C596.299 59.4635 596.151 59.724 596.047 60.0312C595.948 60.3333 595.898 60.6667 595.898 61.0312C595.898 61.4115 595.953 61.7526 596.062 62.0547C596.172 62.3568 596.326 62.6146 596.523 62.8281C596.727 63.0365 596.969 63.1979 597.25 63.3125C597.531 63.4219 597.844 63.4766 598.188 63.4766C598.354 63.4766 598.529 63.4661 598.711 63.4453C598.898 63.4193 599.083 63.3854 599.266 63.3438C599.453 63.2969 599.635 63.2448 599.812 63.1875C599.995 63.1302 600.164 63.0677 600.32 63V64.6953ZM609.844 60.9688C609.844 61.5938 609.755 62.1667 609.578 62.6875C609.401 63.2031 609.146 63.6458 608.812 64.0156C608.479 64.3854 608.07 64.6719 607.586 64.875C607.102 65.0781 606.549 65.1797 605.93 65.1797C605.341 65.1797 604.815 65.0938 604.352 64.9219C603.888 64.75 603.495 64.4948 603.172 64.1562C602.849 63.8125 602.602 63.3854 602.43 62.875C602.258 62.3594 602.172 61.7604 602.172 61.0781C602.172 60.4479 602.26 59.875 602.438 59.3594C602.62 58.8438 602.878 58.4036 603.211 58.0391C603.549 57.6745 603.961 57.3932 604.445 57.1953C604.93 56.9922 605.477 56.8906 606.086 56.8906C606.68 56.8906 607.208 56.9792 607.672 57.1562C608.135 57.3281 608.529 57.5859 608.852 57.9297C609.174 58.2734 609.419 58.7005 609.586 59.2109C609.758 59.7161 609.844 60.3021 609.844 60.9688ZM607.859 61.0156C607.859 60.1927 607.703 59.5755 607.391 59.1641C607.083 58.7474 606.628 58.5391 606.023 58.5391C605.69 58.5391 605.406 58.6042 605.172 58.7344C604.938 58.8646 604.745 59.0443 604.594 59.2734C604.443 59.4974 604.331 59.7604 604.258 60.0625C604.19 60.3646 604.156 60.6875 604.156 61.0312C604.156 61.8594 604.323 62.4844 604.656 62.9062C604.99 63.3229 605.445 63.5312 606.023 63.5312C606.341 63.5312 606.617 63.4688 606.852 63.3438C607.086 63.2135 607.276 63.0365 607.422 62.8125C607.568 62.5833 607.677 62.3151 607.75 62.0078C607.823 61.7005 607.859 61.3698 607.859 61.0156ZM613.383 57.0625V62.2344C613.383 62.6667 613.464 62.9948 613.625 63.2188C613.786 63.4375 614.031 63.5469 614.359 63.5469C614.677 63.5469 614.982 63.4167 615.273 63.1562C615.57 62.8906 615.883 62.5339 616.211 62.0859V57.0625H618.117V65H616.469L616.422 63.8281C616.255 64.0312 616.086 64.2161 615.914 64.3828C615.742 64.5495 615.555 64.6927 615.352 64.8125C615.154 64.9271 614.935 65.0156 614.695 65.0781C614.461 65.1458 614.201 65.1797 613.914 65.1797C613.508 65.1797 613.151 65.1146 612.844 64.9844C612.542 64.849 612.289 64.6589 612.086 64.4141C611.883 64.1693 611.729 63.8776 611.625 63.5391C611.526 63.1953 611.477 62.8125 611.477 62.3906V57.0625H613.383ZM627.43 60.8906C627.43 61.6198 627.326 62.25 627.117 62.7812C626.914 63.3125 626.628 63.7552 626.258 64.1094C625.893 64.4583 625.461 64.7188 624.961 64.8906C624.461 65.0573 623.917 65.1406 623.328 65.1406C623.13 65.1406 622.932 65.1276 622.734 65.1016C622.536 65.0755 622.357 65.0417 622.195 65V68.1016H620.289V57.0625H621.938L621.984 58.2344C622.146 58.0312 622.312 57.8464 622.484 57.6797C622.661 57.513 622.852 57.3724 623.055 57.2578C623.258 57.138 623.477 57.0469 623.711 56.9844C623.945 56.9219 624.208 56.8906 624.5 56.8906C624.969 56.8906 625.385 56.9844 625.75 57.1719C626.115 57.3594 626.419 57.6276 626.664 57.9766C626.914 58.3203 627.104 58.7396 627.234 59.2344C627.365 59.724 627.43 60.276 627.43 60.8906ZM625.43 60.9688C625.43 60.5312 625.398 60.1589 625.336 59.8516C625.273 59.5443 625.182 59.2917 625.062 59.0938C624.948 58.8958 624.805 58.7526 624.633 58.6641C624.466 58.5703 624.273 58.5234 624.055 58.5234C623.732 58.5234 623.422 58.6536 623.125 58.9141C622.833 59.1745 622.523 59.5286 622.195 59.9766V63.4453C622.346 63.5026 622.531 63.5495 622.75 63.5859C622.974 63.6224 623.201 63.6406 623.43 63.6406C623.732 63.6406 624.005 63.5781 624.25 63.4531C624.5 63.3281 624.711 63.151 624.883 62.9219C625.06 62.6927 625.195 62.4141 625.289 62.0859C625.383 61.7526 625.43 61.3802 625.43 60.9688ZM631.648 55.4453H629.406V53.9609H633.602V63.5156H635.891V65H629.133V63.5156H631.648V55.4453ZM642.555 54.8906C642.555 55.0625 642.523 55.224 642.461 55.375C642.398 55.526 642.31 55.6589 642.195 55.7734C642.086 55.8828 641.956 55.9714 641.805 56.0391C641.654 56.1016 641.49 56.1328 641.312 56.1328C641.135 56.1328 640.969 56.1016 640.812 56.0391C640.661 55.9714 640.529 55.8828 640.414 55.7734C640.305 55.6589 640.219 55.526 640.156 55.375C640.094 55.224 640.062 55.0625 640.062 54.8906C640.062 54.7188 640.094 54.5573 640.156 54.4062C640.219 54.2552 640.305 54.1224 640.414 54.0078C640.529 53.8932 640.661 53.8047 640.812 53.7422C640.969 53.6745 641.135 53.6406 641.312 53.6406C641.49 53.6406 641.654 53.6745 641.805 53.7422C641.956 53.8047 642.086 53.8932 642.195 54.0078C642.31 54.1224 642.398 54.2552 642.461 54.4062C642.523 54.5573 642.555 54.7188 642.555 54.8906ZM640.445 58.5469H638.203V57.0625H642.398V63.5156H644.688V65H637.93V63.5156H640.445V58.5469ZM651.414 65V59.8281C651.414 58.9583 651.091 58.5234 650.445 58.5234C650.122 58.5234 649.812 58.6536 649.516 58.9141C649.224 59.1745 648.914 59.5286 648.586 59.9766V65H646.68V57.0625H648.328L648.375 58.2344C648.536 58.0312 648.703 57.8464 648.875 57.6797C649.052 57.513 649.242 57.3724 649.445 57.2578C649.648 57.138 649.867 57.0469 650.102 56.9844C650.336 56.9219 650.599 56.8906 650.891 56.8906C651.297 56.8906 651.651 56.9583 651.953 57.0938C652.255 57.224 652.508 57.4115 652.711 57.6562C652.914 57.8958 653.065 58.1875 653.164 58.5312C653.268 58.8698 653.32 59.25 653.32 59.6719V65H651.414ZM661.43 58.4531C661.576 58.6354 661.677 58.8281 661.734 59.0312C661.797 59.2292 661.828 59.4323 661.828 59.6406C661.828 60.0833 661.75 60.474 661.594 60.8125C661.443 61.151 661.227 61.4349 660.945 61.6641C660.669 61.8932 660.336 62.0677 659.945 62.1875C659.56 62.3021 659.133 62.3594 658.664 62.3594C658.388 62.3594 658.133 62.3333 657.898 62.2812C657.664 62.224 657.487 62.1589 657.367 62.0859C657.279 62.1745 657.203 62.2734 657.141 62.3828C657.078 62.487 657.047 62.6068 657.047 62.7422C657.047 62.8255 657.068 62.9089 657.109 62.9922C657.151 63.0755 657.211 63.151 657.289 63.2188C657.372 63.2812 657.469 63.3333 657.578 63.375C657.693 63.4167 657.82 63.4401 657.961 63.4453L659.844 63.5156C660.266 63.526 660.646 63.5807 660.984 63.6797C661.328 63.7734 661.622 63.9089 661.867 64.0859C662.112 64.263 662.299 64.4792 662.43 64.7344C662.565 64.9844 662.633 65.2708 662.633 65.5938C662.633 65.9635 662.549 66.3125 662.383 66.6406C662.216 66.9688 661.964 67.2526 661.625 67.4922C661.292 67.737 660.875 67.9297 660.375 68.0703C659.875 68.2109 659.294 68.2812 658.633 68.2812C657.992 68.2812 657.44 68.2292 656.977 68.125C656.518 68.026 656.141 67.8854 655.844 67.7031C655.552 67.5208 655.336 67.3021 655.195 67.0469C655.055 66.7969 654.984 66.5208 654.984 66.2188C654.984 66.0365 655.008 65.8672 655.055 65.7109C655.102 65.5547 655.172 65.4036 655.266 65.2578C655.359 65.1172 655.477 64.9792 655.617 64.8438C655.758 64.7083 655.924 64.5729 656.117 64.4375C655.862 64.2917 655.667 64.1042 655.531 63.875C655.401 63.6458 655.336 63.401 655.336 63.1406C655.336 62.9635 655.359 62.7995 655.406 62.6484C655.453 62.4922 655.513 62.3438 655.586 62.2031C655.664 62.0625 655.753 61.9271 655.852 61.7969C655.951 61.6667 656.055 61.5391 656.164 61.4141C655.971 61.2214 655.81 60.9896 655.68 60.7188C655.555 60.4427 655.492 60.099 655.492 59.6875C655.492 59.2448 655.57 58.8516 655.727 58.5078C655.888 58.1589 656.109 57.8672 656.391 57.6328C656.672 57.3932 657.005 57.2135 657.391 57.0938C657.781 56.9688 658.206 56.9062 658.664 56.9062C658.898 56.9062 659.122 56.9193 659.336 56.9453C659.555 56.9661 659.753 57.0052 659.93 57.0625H662.68V58.4531H661.43ZM656.938 66.0547C656.938 66.362 657.091 66.5885 657.398 66.7344C657.711 66.8802 658.148 66.9531 658.711 66.9531C659.07 66.9531 659.372 66.9193 659.617 66.8516C659.867 66.7839 660.07 66.6953 660.227 66.5859C660.383 66.4766 660.495 66.349 660.562 66.2031C660.63 66.0573 660.664 65.9062 660.664 65.75C660.664 65.6094 660.63 65.4896 660.562 65.3906C660.5 65.2969 660.409 65.2161 660.289 65.1484C660.174 65.0859 660.036 65.0365 659.875 65C659.719 64.9688 659.544 64.9479 659.352 64.9375L657.672 64.9062C657.521 65.0104 657.396 65.1094 657.297 65.2031C657.203 65.2969 657.128 65.388 657.07 65.4766C657.018 65.5703 656.982 65.6641 656.961 65.7578C656.945 65.8516 656.938 65.9505 656.938 66.0547ZM657.258 59.6875C657.258 60.1094 657.38 60.4453 657.625 60.6953C657.875 60.9401 658.221 61.0625 658.664 61.0625C658.898 61.0625 659.102 61.0234 659.273 60.9453C659.451 60.8672 659.596 60.763 659.711 60.6328C659.826 60.5026 659.911 60.3516 659.969 60.1797C660.026 60.0078 660.055 59.8281 660.055 59.6406C660.055 59.1979 659.93 58.8542 659.68 58.6094C659.435 58.3594 659.091 58.2344 658.648 58.2344C658.414 58.2344 658.208 58.2734 658.031 58.3516C657.859 58.4297 657.716 58.5365 657.602 58.6719C657.487 58.8021 657.401 58.9557 657.344 59.1328C657.286 59.3099 657.258 59.4948 657.258 59.6875ZM677.906 68.2812C676.641 67.2083 675.69 66.0573 675.055 64.8281C674.424 63.599 674.109 62.276 674.109 60.8594C674.109 60.0677 674.203 59.3203 674.391 58.6172C674.578 57.9089 674.841 57.2448 675.18 56.625C675.523 56.0052 675.93 55.4245 676.398 54.8828C676.872 54.3359 677.391 53.8255 677.953 53.3516L679.039 54.4375C678.023 55.349 677.26 56.3333 676.75 57.3906C676.24 58.4479 675.984 59.5599 675.984 60.7266C675.984 61.9089 676.24 63.0469 676.75 64.1406C677.26 65.2292 678.023 66.224 679.039 67.125L677.906 68.2812ZM689.008 60.8906C689.008 61.6198 688.904 62.25 688.695 62.7812C688.492 63.3125 688.206 63.7552 687.836 64.1094C687.471 64.4583 687.039 64.7188 686.539 64.8906C686.039 65.0573 685.495 65.1406 684.906 65.1406C684.328 65.1406 683.789 65.0964 683.289 65.0078C682.794 64.9245 682.32 64.8099 681.867 64.6641V53.9609H683.773V56.5547L683.695 58.1172C683.982 57.7474 684.315 57.4505 684.695 57.2266C685.081 57.0026 685.542 56.8906 686.078 56.8906C686.547 56.8906 686.964 56.9844 687.328 57.1719C687.693 57.3594 687.997 57.6276 688.242 57.9766C688.492 58.3203 688.682 58.7396 688.812 59.2344C688.943 59.724 689.008 60.276 689.008 60.8906ZM687.008 60.9688C687.008 60.5312 686.977 60.1589 686.914 59.8516C686.852 59.5443 686.76 59.2917 686.641 59.0938C686.526 58.8958 686.383 58.7526 686.211 58.6641C686.044 58.5703 685.852 58.5234 685.633 58.5234C685.31 58.5234 685 58.6536 684.703 58.9141C684.411 59.1745 684.102 59.5286 683.773 59.9766V63.4453C683.924 63.5026 684.109 63.5495 684.328 63.5859C684.552 63.6224 684.779 63.6406 685.008 63.6406C685.31 63.6406 685.583 63.5781 685.828 63.4531C686.078 63.3281 686.289 63.151 686.461 62.9219C686.638 62.6927 686.773 62.4141 686.867 62.0859C686.961 61.7526 687.008 61.3802 687.008 60.9688ZM695.641 65L695.594 63.9609C695.427 64.138 695.253 64.3021 695.07 64.4531C694.888 64.599 694.688 64.7266 694.469 64.8359C694.25 64.9453 694.01 65.0286 693.75 65.0859C693.495 65.1484 693.214 65.1797 692.906 65.1797C692.5 65.1797 692.143 65.1198 691.836 65C691.529 64.8802 691.271 64.7135 691.062 64.5C690.854 64.2865 690.695 64.0286 690.586 63.7266C690.482 63.4245 690.43 63.0911 690.43 62.7266C690.43 62.3516 690.508 62.0052 690.664 61.6875C690.826 61.3698 691.068 61.0964 691.391 60.8672C691.719 60.638 692.125 60.4583 692.609 60.3281C693.099 60.1979 693.672 60.1328 694.328 60.1328H695.367V59.6562C695.367 59.4531 695.339 59.2708 695.281 59.1094C695.224 58.9427 695.13 58.8021 695 58.6875C694.875 58.5729 694.711 58.4844 694.508 58.4219C694.305 58.3594 694.055 58.3281 693.758 58.3281C693.289 58.3281 692.826 58.3828 692.367 58.4922C691.914 58.5964 691.474 58.7448 691.047 58.9375V57.4141C691.427 57.263 691.865 57.138 692.359 57.0391C692.859 56.9401 693.378 56.8906 693.914 56.8906C694.503 56.8906 695.008 56.9479 695.43 57.0625C695.852 57.1719 696.198 57.3385 696.469 57.5625C696.745 57.7865 696.948 58.0677 697.078 58.4062C697.208 58.7396 697.273 59.1302 697.273 59.5781V65H695.641ZM695.367 61.4922H694.203C693.88 61.4922 693.607 61.5234 693.383 61.5859C693.159 61.6484 692.977 61.7344 692.836 61.8438C692.695 61.9531 692.591 62.0807 692.523 62.2266C692.461 62.3672 692.43 62.5182 692.43 62.6797C692.43 63.0026 692.534 63.25 692.742 63.4219C692.951 63.5885 693.234 63.6719 693.594 63.6719C693.859 63.6719 694.135 63.5755 694.422 63.3828C694.708 63.1901 695.023 62.9141 695.367 62.5547V61.4922ZM704.453 65L704.406 63.8281C704.24 64.0312 704.068 64.2161 703.891 64.3828C703.714 64.5495 703.523 64.6927 703.32 64.8125C703.117 64.9271 702.898 65.0156 702.664 65.0781C702.435 65.1458 702.18 65.1797 701.898 65.1797C701.43 65.1797 701.013 65.0859 700.648 64.8984C700.284 64.7109 699.977 64.4453 699.727 64.1016C699.482 63.7526 699.294 63.3307 699.164 62.8359C699.034 62.3411 698.969 61.7891 698.969 61.1797C698.969 60.4505 699.07 59.8203 699.273 59.2891C699.482 58.7526 699.768 58.3099 700.133 57.9609C700.497 57.6068 700.93 57.3464 701.43 57.1797C701.93 57.0078 702.474 56.9219 703.062 56.9219C703.26 56.9219 703.458 56.9349 703.656 56.9609C703.859 56.987 704.039 57.0208 704.195 57.0625V53.9609H706.102V65H704.453ZM700.969 61.0938C700.969 61.5312 700.997 61.9062 701.055 62.2188C701.117 62.526 701.206 62.7786 701.32 62.9766C701.44 63.1745 701.586 63.3203 701.758 63.4141C701.93 63.5026 702.125 63.5469 702.344 63.5469C702.667 63.5469 702.974 63.4167 703.266 63.1562C703.557 62.8958 703.867 62.5391 704.195 62.0859V58.6172C704.044 58.5599 703.857 58.513 703.633 58.4766C703.414 58.4401 703.193 58.4219 702.969 58.4219C702.661 58.4219 702.385 58.4844 702.141 58.6094C701.896 58.7344 701.685 58.9115 701.508 59.1406C701.336 59.3698 701.203 59.651 701.109 59.9844C701.016 60.3125 700.969 60.6823 700.969 61.0938ZM710.086 53.3516C711.362 54.4141 712.312 55.5625 712.938 56.7969C713.562 58.026 713.875 59.3516 713.875 60.7734C713.875 61.5651 713.781 62.3125 713.594 63.0156C713.406 63.7188 713.143 64.3828 712.805 65.0078C712.471 65.6328 712.07 66.2161 711.602 66.7578C711.133 67.3047 710.617 67.8125 710.055 68.2812L708.961 67.1953C709.982 66.2839 710.747 65.2969 711.258 64.2344C711.768 63.1719 712.023 62.0573 712.023 60.8906C712.023 59.7135 711.768 58.5781 711.258 57.4844C710.747 56.3906 709.982 55.3906 708.961 54.4844L710.086 53.3516Z" fill="black"/>
<path d="M540.672 228V217.789H542.625V226.352H546.938V228H540.672ZM556.164 223.969C556.164 224.594 556.076 225.167 555.898 225.688C555.721 226.203 555.466 226.646 555.133 227.016C554.799 227.385 554.391 227.672 553.906 227.875C553.422 228.078 552.87 228.18 552.25 228.18C551.661 228.18 551.135 228.094 550.672 227.922C550.208 227.75 549.815 227.495 549.492 227.156C549.169 226.812 548.922 226.385 548.75 225.875C548.578 225.359 548.492 224.76 548.492 224.078C548.492 223.448 548.581 222.875 548.758 222.359C548.94 221.844 549.198 221.404 549.531 221.039C549.87 220.674 550.281 220.393 550.766 220.195C551.25 219.992 551.797 219.891 552.406 219.891C553 219.891 553.529 219.979 553.992 220.156C554.456 220.328 554.849 220.586 555.172 220.93C555.495 221.273 555.74 221.701 555.906 222.211C556.078 222.716 556.164 223.302 556.164 223.969ZM554.18 224.016C554.18 223.193 554.023 222.576 553.711 222.164C553.404 221.747 552.948 221.539 552.344 221.539C552.01 221.539 551.727 221.604 551.492 221.734C551.258 221.865 551.065 222.044 550.914 222.273C550.763 222.497 550.651 222.76 550.578 223.062C550.51 223.365 550.477 223.688 550.477 224.031C550.477 224.859 550.643 225.484 550.977 225.906C551.31 226.323 551.766 226.531 552.344 226.531C552.661 226.531 552.938 226.469 553.172 226.344C553.406 226.214 553.596 226.036 553.742 225.812C553.888 225.583 553.997 225.315 554.07 225.008C554.143 224.701 554.18 224.37 554.18 224.016ZM564.961 223.969C564.961 224.594 564.872 225.167 564.695 225.688C564.518 226.203 564.263 226.646 563.93 227.016C563.596 227.385 563.188 227.672 562.703 227.875C562.219 228.078 561.667 228.18 561.047 228.18C560.458 228.18 559.932 228.094 559.469 227.922C559.005 227.75 558.612 227.495 558.289 227.156C557.966 226.812 557.719 226.385 557.547 225.875C557.375 225.359 557.289 224.76 557.289 224.078C557.289 223.448 557.378 222.875 557.555 222.359C557.737 221.844 557.995 221.404 558.328 221.039C558.667 220.674 559.078 220.393 559.562 220.195C560.047 219.992 560.594 219.891 561.203 219.891C561.797 219.891 562.326 219.979 562.789 220.156C563.253 220.328 563.646 220.586 563.969 220.93C564.292 221.273 564.536 221.701 564.703 222.211C564.875 222.716 564.961 223.302 564.961 223.969ZM562.977 224.016C562.977 223.193 562.82 222.576 562.508 222.164C562.201 221.747 561.745 221.539 561.141 221.539C560.807 221.539 560.523 221.604 560.289 221.734C560.055 221.865 559.862 222.044 559.711 222.273C559.56 222.497 559.448 222.76 559.375 223.062C559.307 223.365 559.273 223.688 559.273 224.031C559.273 224.859 559.44 225.484 559.773 225.906C560.107 226.323 560.562 226.531 561.141 226.531C561.458 226.531 561.734 226.469 561.969 226.344C562.203 226.214 562.393 226.036 562.539 225.812C562.685 225.583 562.794 225.315 562.867 225.008C562.94 224.701 562.977 224.37 562.977 224.016ZM573.156 225.664C573.156 226.117 573.055 226.505 572.852 226.828C572.654 227.146 572.388 227.406 572.055 227.609C571.727 227.807 571.352 227.951 570.93 228.039C570.513 228.133 570.086 228.18 569.648 228.18C569.065 228.18 568.539 228.151 568.07 228.094C567.602 228.042 567.159 227.964 566.742 227.859V226.141C567.232 226.344 567.719 226.492 568.203 226.586C568.693 226.674 569.154 226.719 569.586 226.719C570.086 226.719 570.458 226.641 570.703 226.484C570.953 226.323 571.078 226.115 571.078 225.859C571.078 225.74 571.052 225.63 571 225.531C570.948 225.432 570.849 225.339 570.703 225.25C570.562 225.156 570.362 225.062 570.102 224.969C569.841 224.87 569.5 224.76 569.078 224.641C568.688 224.531 568.344 224.409 568.047 224.273C567.755 224.133 567.513 223.969 567.32 223.781C567.128 223.594 566.982 223.378 566.883 223.133C566.789 222.883 566.742 222.591 566.742 222.258C566.742 221.935 566.815 221.63 566.961 221.344C567.107 221.057 567.323 220.807 567.609 220.594C567.901 220.375 568.263 220.203 568.695 220.078C569.128 219.953 569.633 219.891 570.211 219.891C570.711 219.891 571.154 219.917 571.539 219.969C571.924 220.021 572.266 220.078 572.562 220.141V221.695C572.109 221.549 571.682 221.448 571.281 221.391C570.885 221.328 570.492 221.297 570.102 221.297C569.711 221.297 569.396 221.367 569.156 221.508C568.922 221.648 568.805 221.844 568.805 222.094C568.805 222.214 568.828 222.32 568.875 222.414C568.922 222.508 569.013 222.599 569.148 222.688C569.289 222.776 569.482 222.87 569.727 222.969C569.977 223.062 570.305 223.167 570.711 223.281C571.169 223.411 571.555 223.552 571.867 223.703C572.18 223.849 572.43 224.016 572.617 224.203C572.81 224.391 572.948 224.604 573.031 224.844C573.115 225.083 573.156 225.357 573.156 225.664ZM582.32 223.422C582.32 223.552 582.315 223.721 582.305 223.93C582.299 224.138 582.289 224.333 582.273 224.516H577.055C577.055 224.865 577.107 225.172 577.211 225.438C577.32 225.703 577.471 225.927 577.664 226.109C577.862 226.286 578.096 226.422 578.367 226.516C578.643 226.609 578.948 226.656 579.281 226.656C579.667 226.656 580.078 226.628 580.516 226.57C580.958 226.508 581.417 226.409 581.891 226.273V227.789C581.688 227.846 581.466 227.898 581.227 227.945C580.987 227.992 580.742 228.034 580.492 228.07C580.242 228.107 579.99 228.133 579.734 228.148C579.479 228.169 579.232 228.18 578.992 228.18C578.388 228.18 577.846 228.094 577.367 227.922C576.888 227.75 576.482 227.497 576.148 227.164C575.815 226.826 575.56 226.409 575.383 225.914C575.206 225.419 575.117 224.846 575.117 224.195C575.117 223.549 575.206 222.964 575.383 222.438C575.56 221.906 575.81 221.453 576.133 221.078C576.456 220.698 576.846 220.406 577.305 220.203C577.768 219.995 578.284 219.891 578.852 219.891C579.414 219.891 579.911 219.979 580.344 220.156C580.776 220.328 581.138 220.57 581.43 220.883C581.721 221.195 581.943 221.568 582.094 222C582.245 222.432 582.32 222.906 582.32 223.422ZM580.383 223.148C580.388 222.836 580.349 222.565 580.266 222.336C580.182 222.102 580.068 221.909 579.922 221.758C579.781 221.607 579.615 221.495 579.422 221.422C579.234 221.349 579.031 221.312 578.812 221.312C578.333 221.312 577.94 221.474 577.633 221.797C577.326 222.115 577.143 222.565 577.086 223.148H580.383ZM599.422 227.695C599.047 227.846 598.659 227.958 598.258 228.031C597.857 228.104 597.438 228.141 597 228.141C596.37 228.141 595.805 228.055 595.305 227.883C594.805 227.711 594.38 227.456 594.031 227.117C593.682 226.779 593.414 226.359 593.227 225.859C593.044 225.359 592.953 224.781 592.953 224.125C592.953 223.49 593.052 222.914 593.25 222.398C593.453 221.883 593.737 221.443 594.102 221.078C594.466 220.714 594.904 220.432 595.414 220.234C595.93 220.036 596.503 219.938 597.133 219.938C597.648 219.938 598.081 219.966 598.43 220.023C598.784 220.076 599.102 220.143 599.383 220.227V222.078C599.06 221.917 598.708 221.792 598.328 221.703C597.953 221.615 597.596 221.57 597.258 221.57C596.904 221.57 596.586 221.63 596.305 221.75C596.023 221.87 595.786 222.036 595.594 222.25C595.401 222.464 595.253 222.724 595.148 223.031C595.049 223.333 595 223.667 595 224.031C595 224.411 595.055 224.753 595.164 225.055C595.273 225.357 595.427 225.615 595.625 225.828C595.828 226.036 596.07 226.198 596.352 226.312C596.633 226.422 596.945 226.477 597.289 226.477C597.456 226.477 597.63 226.466 597.812 226.445C598 226.419 598.185 226.385 598.367 226.344C598.555 226.297 598.737 226.245 598.914 226.188C599.096 226.13 599.266 226.068 599.422 226V227.695ZM608.945 223.969C608.945 224.594 608.857 225.167 608.68 225.688C608.503 226.203 608.247 226.646 607.914 227.016C607.581 227.385 607.172 227.672 606.688 227.875C606.203 228.078 605.651 228.18 605.031 228.18C604.443 228.18 603.917 228.094 603.453 227.922C602.99 227.75 602.596 227.495 602.273 227.156C601.951 226.812 601.703 226.385 601.531 225.875C601.359 225.359 601.273 224.76 601.273 224.078C601.273 223.448 601.362 222.875 601.539 222.359C601.721 221.844 601.979 221.404 602.312 221.039C602.651 220.674 603.062 220.393 603.547 220.195C604.031 219.992 604.578 219.891 605.188 219.891C605.781 219.891 606.31 219.979 606.773 220.156C607.237 220.328 607.63 220.586 607.953 220.93C608.276 221.273 608.521 221.701 608.688 222.211C608.859 222.716 608.945 223.302 608.945 223.969ZM606.961 224.016C606.961 223.193 606.805 222.576 606.492 222.164C606.185 221.747 605.729 221.539 605.125 221.539C604.792 221.539 604.508 221.604 604.273 221.734C604.039 221.865 603.846 222.044 603.695 222.273C603.544 222.497 603.432 222.76 603.359 223.062C603.292 223.365 603.258 223.688 603.258 224.031C603.258 224.859 603.424 225.484 603.758 225.906C604.091 226.323 604.547 226.531 605.125 226.531C605.443 226.531 605.719 226.469 605.953 226.344C606.188 226.214 606.378 226.036 606.523 225.812C606.669 225.583 606.779 225.315 606.852 225.008C606.924 224.701 606.961 224.37 606.961 224.016ZM612.484 220.062V225.234C612.484 225.667 612.565 225.995 612.727 226.219C612.888 226.438 613.133 226.547 613.461 226.547C613.779 226.547 614.083 226.417 614.375 226.156C614.672 225.891 614.984 225.534 615.312 225.086V220.062H617.219V228H615.57L615.523 226.828C615.357 227.031 615.188 227.216 615.016 227.383C614.844 227.549 614.656 227.693 614.453 227.812C614.255 227.927 614.036 228.016 613.797 228.078C613.562 228.146 613.302 228.18 613.016 228.18C612.609 228.18 612.253 228.115 611.945 227.984C611.643 227.849 611.391 227.659 611.188 227.414C610.984 227.169 610.831 226.878 610.727 226.539C610.628 226.195 610.578 225.812 610.578 225.391V220.062H612.484ZM626.531 223.891C626.531 224.62 626.427 225.25 626.219 225.781C626.016 226.312 625.729 226.755 625.359 227.109C624.995 227.458 624.562 227.719 624.062 227.891C623.562 228.057 623.018 228.141 622.43 228.141C622.232 228.141 622.034 228.128 621.836 228.102C621.638 228.076 621.458 228.042 621.297 228V231.102H619.391V220.062H621.039L621.086 221.234C621.247 221.031 621.414 220.846 621.586 220.68C621.763 220.513 621.953 220.372 622.156 220.258C622.359 220.138 622.578 220.047 622.812 219.984C623.047 219.922 623.31 219.891 623.602 219.891C624.07 219.891 624.487 219.984 624.852 220.172C625.216 220.359 625.521 220.628 625.766 220.977C626.016 221.32 626.206 221.74 626.336 222.234C626.466 222.724 626.531 223.276 626.531 223.891ZM624.531 223.969C624.531 223.531 624.5 223.159 624.438 222.852C624.375 222.544 624.284 222.292 624.164 222.094C624.049 221.896 623.906 221.753 623.734 221.664C623.568 221.57 623.375 221.523 623.156 221.523C622.833 221.523 622.523 221.654 622.227 221.914C621.935 222.174 621.625 222.529 621.297 222.977V226.445C621.448 226.503 621.633 226.549 621.852 226.586C622.076 226.622 622.302 226.641 622.531 226.641C622.833 226.641 623.107 226.578 623.352 226.453C623.602 226.328 623.812 226.151 623.984 225.922C624.161 225.693 624.297 225.414 624.391 225.086C624.484 224.753 624.531 224.38 624.531 223.969ZM630.75 218.445H628.508V216.961H632.703V226.516H634.992V228H628.234V226.516H630.75V218.445ZM641.656 217.891C641.656 218.062 641.625 218.224 641.562 218.375C641.5 218.526 641.411 218.659 641.297 218.773C641.188 218.883 641.057 218.971 640.906 219.039C640.755 219.102 640.591 219.133 640.414 219.133C640.237 219.133 640.07 219.102 639.914 219.039C639.763 218.971 639.63 218.883 639.516 218.773C639.406 218.659 639.32 218.526 639.258 218.375C639.195 218.224 639.164 218.062 639.164 217.891C639.164 217.719 639.195 217.557 639.258 217.406C639.32 217.255 639.406 217.122 639.516 217.008C639.63 216.893 639.763 216.805 639.914 216.742C640.07 216.674 640.237 216.641 640.414 216.641C640.591 216.641 640.755 216.674 640.906 216.742C641.057 216.805 641.188 216.893 641.297 217.008C641.411 217.122 641.5 217.255 641.562 217.406C641.625 217.557 641.656 217.719 641.656 217.891ZM639.547 221.547H637.305V220.062H641.5V226.516H643.789V228H637.031V226.516H639.547V221.547ZM650.516 228V222.828C650.516 221.958 650.193 221.523 649.547 221.523C649.224 221.523 648.914 221.654 648.617 221.914C648.326 222.174 648.016 222.529 647.688 222.977V228H645.781V220.062H647.43L647.477 221.234C647.638 221.031 647.805 220.846 647.977 220.68C648.154 220.513 648.344 220.372 648.547 220.258C648.75 220.138 648.969 220.047 649.203 219.984C649.438 219.922 649.701 219.891 649.992 219.891C650.398 219.891 650.753 219.958 651.055 220.094C651.357 220.224 651.609 220.411 651.812 220.656C652.016 220.896 652.167 221.188 652.266 221.531C652.37 221.87 652.422 222.25 652.422 222.672V228H650.516ZM660.531 221.453C660.677 221.635 660.779 221.828 660.836 222.031C660.898 222.229 660.93 222.432 660.93 222.641C660.93 223.083 660.852 223.474 660.695 223.812C660.544 224.151 660.328 224.435 660.047 224.664C659.771 224.893 659.438 225.068 659.047 225.188C658.661 225.302 658.234 225.359 657.766 225.359C657.49 225.359 657.234 225.333 657 225.281C656.766 225.224 656.589 225.159 656.469 225.086C656.38 225.174 656.305 225.273 656.242 225.383C656.18 225.487 656.148 225.607 656.148 225.742C656.148 225.826 656.169 225.909 656.211 225.992C656.253 226.076 656.312 226.151 656.391 226.219C656.474 226.281 656.57 226.333 656.68 226.375C656.794 226.417 656.922 226.44 657.062 226.445L658.945 226.516C659.367 226.526 659.747 226.581 660.086 226.68C660.43 226.773 660.724 226.909 660.969 227.086C661.214 227.263 661.401 227.479 661.531 227.734C661.667 227.984 661.734 228.271 661.734 228.594C661.734 228.964 661.651 229.312 661.484 229.641C661.318 229.969 661.065 230.253 660.727 230.492C660.393 230.737 659.977 230.93 659.477 231.07C658.977 231.211 658.396 231.281 657.734 231.281C657.094 231.281 656.542 231.229 656.078 231.125C655.62 231.026 655.242 230.885 654.945 230.703C654.654 230.521 654.438 230.302 654.297 230.047C654.156 229.797 654.086 229.521 654.086 229.219C654.086 229.036 654.109 228.867 654.156 228.711C654.203 228.555 654.273 228.404 654.367 228.258C654.461 228.117 654.578 227.979 654.719 227.844C654.859 227.708 655.026 227.573 655.219 227.438C654.964 227.292 654.768 227.104 654.633 226.875C654.503 226.646 654.438 226.401 654.438 226.141C654.438 225.964 654.461 225.799 654.508 225.648C654.555 225.492 654.615 225.344 654.688 225.203C654.766 225.062 654.854 224.927 654.953 224.797C655.052 224.667 655.156 224.539 655.266 224.414C655.073 224.221 654.911 223.99 654.781 223.719C654.656 223.443 654.594 223.099 654.594 222.688C654.594 222.245 654.672 221.852 654.828 221.508C654.99 221.159 655.211 220.867 655.492 220.633C655.773 220.393 656.107 220.214 656.492 220.094C656.883 219.969 657.307 219.906 657.766 219.906C658 219.906 658.224 219.919 658.438 219.945C658.656 219.966 658.854 220.005 659.031 220.062H661.781V221.453H660.531ZM656.039 229.055C656.039 229.362 656.193 229.589 656.5 229.734C656.812 229.88 657.25 229.953 657.812 229.953C658.172 229.953 658.474 229.919 658.719 229.852C658.969 229.784 659.172 229.695 659.328 229.586C659.484 229.477 659.596 229.349 659.664 229.203C659.732 229.057 659.766 228.906 659.766 228.75C659.766 228.609 659.732 228.49 659.664 228.391C659.602 228.297 659.51 228.216 659.391 228.148C659.276 228.086 659.138 228.036 658.977 228C658.82 227.969 658.646 227.948 658.453 227.938L656.773 227.906C656.622 228.01 656.497 228.109 656.398 228.203C656.305 228.297 656.229 228.388 656.172 228.477C656.12 228.57 656.083 228.664 656.062 228.758C656.047 228.852 656.039 228.951 656.039 229.055ZM656.359 222.688C656.359 223.109 656.482 223.445 656.727 223.695C656.977 223.94 657.323 224.062 657.766 224.062C658 224.062 658.203 224.023 658.375 223.945C658.552 223.867 658.698 223.763 658.812 223.633C658.927 223.503 659.013 223.352 659.07 223.18C659.128 223.008 659.156 222.828 659.156 222.641C659.156 222.198 659.031 221.854 658.781 221.609C658.536 221.359 658.193 221.234 657.75 221.234C657.516 221.234 657.31 221.273 657.133 221.352C656.961 221.43 656.818 221.536 656.703 221.672C656.589 221.802 656.503 221.956 656.445 222.133C656.388 222.31 656.359 222.495 656.359 222.688ZM677.008 231.281C675.742 230.208 674.792 229.057 674.156 227.828C673.526 226.599 673.211 225.276 673.211 223.859C673.211 223.068 673.305 222.32 673.492 221.617C673.68 220.909 673.943 220.245 674.281 219.625C674.625 219.005 675.031 218.424 675.5 217.883C675.974 217.336 676.492 216.826 677.055 216.352L678.141 217.438C677.125 218.349 676.362 219.333 675.852 220.391C675.341 221.448 675.086 222.56 675.086 223.727C675.086 224.909 675.341 226.047 675.852 227.141C676.362 228.229 677.125 229.224 678.141 230.125L677.008 231.281ZM686.922 221.453C687.068 221.635 687.169 221.828 687.227 222.031C687.289 222.229 687.32 222.432 687.32 222.641C687.32 223.083 687.242 223.474 687.086 223.812C686.935 224.151 686.719 224.435 686.438 224.664C686.161 224.893 685.828 225.068 685.438 225.188C685.052 225.302 684.625 225.359 684.156 225.359C683.88 225.359 683.625 225.333 683.391 225.281C683.156 225.224 682.979 225.159 682.859 225.086C682.771 225.174 682.695 225.273 682.633 225.383C682.57 225.487 682.539 225.607 682.539 225.742C682.539 225.826 682.56 225.909 682.602 225.992C682.643 226.076 682.703 226.151 682.781 226.219C682.865 226.281 682.961 226.333 683.07 226.375C683.185 226.417 683.312 226.44 683.453 226.445L685.336 226.516C685.758 226.526 686.138 226.581 686.477 226.68C686.82 226.773 687.115 226.909 687.359 227.086C687.604 227.263 687.792 227.479 687.922 227.734C688.057 227.984 688.125 228.271 688.125 228.594C688.125 228.964 688.042 229.312 687.875 229.641C687.708 229.969 687.456 230.253 687.117 230.492C686.784 230.737 686.367 230.93 685.867 231.07C685.367 231.211 684.786 231.281 684.125 231.281C683.484 231.281 682.932 231.229 682.469 231.125C682.01 231.026 681.633 230.885 681.336 230.703C681.044 230.521 680.828 230.302 680.688 230.047C680.547 229.797 680.477 229.521 680.477 229.219C680.477 229.036 680.5 228.867 680.547 228.711C680.594 228.555 680.664 228.404 680.758 228.258C680.852 228.117 680.969 227.979 681.109 227.844C681.25 227.708 681.417 227.573 681.609 227.438C681.354 227.292 681.159 227.104 681.023 226.875C680.893 226.646 680.828 226.401 680.828 226.141C680.828 225.964 680.852 225.799 680.898 225.648C680.945 225.492 681.005 225.344 681.078 225.203C681.156 225.062 681.245 224.927 681.344 224.797C681.443 224.667 681.547 224.539 681.656 224.414C681.464 224.221 681.302 223.99 681.172 223.719C681.047 223.443 680.984 223.099 680.984 222.688C680.984 222.245 681.062 221.852 681.219 221.508C681.38 221.159 681.602 220.867 681.883 220.633C682.164 220.393 682.497 220.214 682.883 220.094C683.273 219.969 683.698 219.906 684.156 219.906C684.391 219.906 684.615 219.919 684.828 219.945C685.047 219.966 685.245 220.005 685.422 220.062H688.172V221.453H686.922ZM682.43 229.055C682.43 229.362 682.583 229.589 682.891 229.734C683.203 229.88 683.641 229.953 684.203 229.953C684.562 229.953 684.865 229.919 685.109 229.852C685.359 229.784 685.562 229.695 685.719 229.586C685.875 229.477 685.987 229.349 686.055 229.203C686.122 229.057 686.156 228.906 686.156 228.75C686.156 228.609 686.122 228.49 686.055 228.391C685.992 228.297 685.901 228.216 685.781 228.148C685.667 228.086 685.529 228.036 685.367 228C685.211 227.969 685.036 227.948 684.844 227.938L683.164 227.906C683.013 228.01 682.888 228.109 682.789 228.203C682.695 228.297 682.62 228.388 682.562 228.477C682.51 228.57 682.474 228.664 682.453 228.758C682.438 228.852 682.43 228.951 682.43 229.055ZM682.75 222.688C682.75 223.109 682.872 223.445 683.117 223.695C683.367 223.94 683.714 224.062 684.156 224.062C684.391 224.062 684.594 224.023 684.766 223.945C684.943 223.867 685.089 223.763 685.203 223.633C685.318 223.503 685.404 223.352 685.461 223.18C685.518 223.008 685.547 222.828 685.547 222.641C685.547 222.198 685.422 221.854 685.172 221.609C684.927 221.359 684.583 221.234 684.141 221.234C683.906 221.234 683.701 221.273 683.523 221.352C683.352 221.43 683.208 221.536 683.094 221.672C682.979 221.802 682.893 221.956 682.836 222.133C682.779 222.31 682.75 222.495 682.75 222.688ZM696.914 223.969C696.914 224.594 696.826 225.167 696.648 225.688C696.471 226.203 696.216 226.646 695.883 227.016C695.549 227.385 695.141 227.672 694.656 227.875C694.172 228.078 693.62 228.18 693 228.18C692.411 228.18 691.885 228.094 691.422 227.922C690.958 227.75 690.565 227.495 690.242 227.156C689.919 226.812 689.672 226.385 689.5 225.875C689.328 225.359 689.242 224.76 689.242 224.078C689.242 223.448 689.331 222.875 689.508 222.359C689.69 221.844 689.948 221.404 690.281 221.039C690.62 220.674 691.031 220.393 691.516 220.195C692 219.992 692.547 219.891 693.156 219.891C693.75 219.891 694.279 219.979 694.742 220.156C695.206 220.328 695.599 220.586 695.922 220.93C696.245 221.273 696.49 221.701 696.656 222.211C696.828 222.716 696.914 223.302 696.914 223.969ZM694.93 224.016C694.93 223.193 694.773 222.576 694.461 222.164C694.154 221.747 693.698 221.539 693.094 221.539C692.76 221.539 692.477 221.604 692.242 221.734C692.008 221.865 691.815 222.044 691.664 222.273C691.513 222.497 691.401 222.76 691.328 223.062C691.26 223.365 691.227 223.688 691.227 224.031C691.227 224.859 691.393 225.484 691.727 225.906C692.06 226.323 692.516 226.531 693.094 226.531C693.411 226.531 693.688 226.469 693.922 226.344C694.156 226.214 694.346 226.036 694.492 225.812C694.638 225.583 694.747 225.315 694.82 225.008C694.893 224.701 694.93 224.37 694.93 224.016ZM705.711 223.969C705.711 224.594 705.622 225.167 705.445 225.688C705.268 226.203 705.013 226.646 704.68 227.016C704.346 227.385 703.938 227.672 703.453 227.875C702.969 228.078 702.417 228.18 701.797 228.18C701.208 228.18 700.682 228.094 700.219 227.922C699.755 227.75 699.362 227.495 699.039 227.156C698.716 226.812 698.469 226.385 698.297 225.875C698.125 225.359 698.039 224.76 698.039 224.078C698.039 223.448 698.128 222.875 698.305 222.359C698.487 221.844 698.745 221.404 699.078 221.039C699.417 220.674 699.828 220.393 700.312 220.195C700.797 219.992 701.344 219.891 701.953 219.891C702.547 219.891 703.076 219.979 703.539 220.156C704.003 220.328 704.396 220.586 704.719 220.93C705.042 221.273 705.286 221.701 705.453 222.211C705.625 222.716 705.711 223.302 705.711 223.969ZM703.727 224.016C703.727 223.193 703.57 222.576 703.258 222.164C702.951 221.747 702.495 221.539 701.891 221.539C701.557 221.539 701.273 221.604 701.039 221.734C700.805 221.865 700.612 222.044 700.461 222.273C700.31 222.497 700.198 222.76 700.125 223.062C700.057 223.365 700.023 223.688 700.023 224.031C700.023 224.859 700.19 225.484 700.523 225.906C700.857 226.323 701.312 226.531 701.891 226.531C702.208 226.531 702.484 226.469 702.719 226.344C702.953 226.214 703.143 226.036 703.289 225.812C703.435 225.583 703.544 225.315 703.617 225.008C703.69 224.701 703.727 224.37 703.727 224.016ZM712.352 228L712.305 226.828C712.138 227.031 711.966 227.216 711.789 227.383C711.612 227.549 711.422 227.693 711.219 227.812C711.016 227.927 710.797 228.016 710.562 228.078C710.333 228.146 710.078 228.18 709.797 228.18C709.328 228.18 708.911 228.086 708.547 227.898C708.182 227.711 707.875 227.445 707.625 227.102C707.38 226.753 707.193 226.331 707.062 225.836C706.932 225.341 706.867 224.789 706.867 224.18C706.867 223.451 706.969 222.82 707.172 222.289C707.38 221.753 707.667 221.31 708.031 220.961C708.396 220.607 708.828 220.346 709.328 220.18C709.828 220.008 710.372 219.922 710.961 219.922C711.159 219.922 711.357 219.935 711.555 219.961C711.758 219.987 711.938 220.021 712.094 220.062V216.961H714V228H712.352ZM708.867 224.094C708.867 224.531 708.896 224.906 708.953 225.219C709.016 225.526 709.104 225.779 709.219 225.977C709.339 226.174 709.484 226.32 709.656 226.414C709.828 226.503 710.023 226.547 710.242 226.547C710.565 226.547 710.872 226.417 711.164 226.156C711.456 225.896 711.766 225.539 712.094 225.086V221.617C711.943 221.56 711.755 221.513 711.531 221.477C711.312 221.44 711.091 221.422 710.867 221.422C710.56 221.422 710.284 221.484 710.039 221.609C709.794 221.734 709.583 221.911 709.406 222.141C709.234 222.37 709.102 222.651 709.008 222.984C708.914 223.312 708.867 223.682 708.867 224.094ZM717.984 216.352C719.26 217.414 720.211 218.562 720.836 219.797C721.461 221.026 721.773 222.352 721.773 223.773C721.773 224.565 721.68 225.312 721.492 226.016C721.305 226.719 721.042 227.383 720.703 228.008C720.37 228.633 719.969 229.216 719.5 229.758C719.031 230.305 718.516 230.812 717.953 231.281L716.859 230.195C717.88 229.284 718.646 228.297 719.156 227.234C719.667 226.172 719.922 225.057 719.922 223.891C719.922 222.714 719.667 221.578 719.156 220.484C718.646 219.391 717.88 218.391 716.859 217.484L717.984 216.352Z" fill="black"/>
<rect x="556.5" y="239.5" width="18" height="18" rx="9" fill="#51DD4E" stroke="black" stroke-width="5"/>
<rect x="604.5" y="337.5" width="18" height="18" rx="9" fill="#51DD4E" stroke="black" stroke-width="5"/>
<rect x="659.5" y="387.5" width="18" height="18" rx="9" fill="#51DD4E" stroke="black" stroke-width="5"/>
<rect x="682.5" y="280.5" width="18" height="18" rx="9" fill="#51DD4E" stroke="black" stroke-width="5"/>
<rect x="682.5" y="280.5" width="18" height="18" rx="9" fill="#51DD4E" stroke="black" stroke-width="5"/>
<rect x="729.5" y="328.5" width="18" height="18" rx="9" fill="#51DD4E" stroke="black" stroke-width="5"/>
<rect x="508.5" y="303.5" width="18" height="18" rx="9" fill="#51DD4E" stroke="black" stroke-width="5"/>
<rect x="611.5" y="279.5" width="18" height="18" rx="9" fill="#51DD4E" stroke="black" stroke-width="5"/>
<rect x="540.5" y="357.5" width="18" height="18" rx="9" fill="#51DD4E" stroke="black" stroke-width="5"/>
<line x1="570.354" y1="256.355" x2="610.354" y2="340.355" stroke="black" stroke-width="3"/>
<line x1="528.686" y1="311.533" x2="612.686" y2="293.533" stroke="black" stroke-width="3"/>
<line x1="555.856" y1="360.03" x2="611.856" y2="294.03" stroke="black" stroke-width="3"/>
<line x1="620.217" y1="339.721" x2="687.217" y2="298.721" stroke="black" stroke-width="3"/>
<line x1="675.046" y1="392.843" x2="732.046" y2="345.843" stroke="black" stroke-width="3"/>
<line x1="620.877" y1="345.505" x2="729.877" y2="336.505" stroke="black" stroke-width="3"/>
</svg>
